<?xml version="1.0" encoding="UTF-8" standalone="no"?>
<!-- Created with Inkscape (http://www.inkscape.org/) -->
<svg
   xmlns:dc="http://purl.org/dc/elements/1.1/"
   xmlns:cc="http://creativecommons.org/ns#"
   xmlns:rdf="http://www.w3.org/1999/02/22-rdf-syntax-ns#"
   xmlns:svg="http://www.w3.org/2000/svg"
   xmlns="http://www.w3.org/2000/svg"
   xmlns:sodipodi="http://sodipodi.sourceforge.net/DTD/sodipodi-0.dtd"
   xmlns:inkscape="http://www.inkscape.org/namespaces/inkscape"
   width="744.09448819"
   height="1052.3622047"
   id="svg2443"
   sodipodi:version="0.32"
   inkscape:version="0.46"
   sodipodi:docname="logo.svg"
   inkscape:output_extension="org.inkscape.output.svg.inkscape">
  <defs
     id="defs2445">
    <inkscape:perspective
       sodipodi:type="inkscape:persp3d"
       inkscape:vp_x="0 : 526.18109 : 1"
       inkscape:vp_y="0 : 1000 : 0"
       inkscape:vp_z="744.09448 : 526.18109 : 1"
       inkscape:persp3d-origin="372.04724 : 350.78739 : 1"
       id="perspective2451" />
  </defs>
  <sodipodi:namedview
     id="base"
     pagecolor="#ffffff"
     bordercolor="#666666"
     borderopacity="1.0"
     gridtolerance="10000"
     guidetolerance="10"
     objecttolerance="10"
     inkscape:pageopacity="0.0"
     inkscape:pageshadow="2"
     inkscape:zoom="0.35355339"
     inkscape:cx="1131.0895"
     inkscape:cy="330.80311"
     inkscape:document-units="px"
     inkscape:current-layer="layer2"
     showgrid="false"
     inkscape:window-width="1280"
     inkscape:window-height="1004"
     inkscape:window-x="1280"
     inkscape:window-y="0"
     showguides="true"
     inkscape:guide-bbox="true" />
  <metadata
     id="metadata2448">
    <rdf:RDF>
      <cc:Work
         rdf:about="">
        <dc:format>image/svg+xml</dc:format>
        <dc:type
           rdf:resource="http://purl.org/dc/dcmitype/StillImage" />
      </cc:Work>
    </rdf:RDF>
  </metadata>
  <g
     inkscape:groupmode="layer"
     id="layer3"
     inkscape:label="bg"
     sodipodi:insensitive="true">
    <rect
       style="fill:#54acf8;display:inline"
       id="rect2688"
       width="850.45203"
       height="1418.205"
       x="-33.700081"
       y="-128.74458" />
  </g>
  <g
     inkscape:groupmode="layer"
     id="layer2"
     inkscape:label="under"
     style="display:inline">
    <path
       sodipodi:type="arc"
       style="fill:#ffffff"
       id="path2690"
       sodipodi:cx="683.41693"
       sodipodi:cy="476.58344"
       sodipodi:rx="63.216064"
       sodipodi:ry="52.964809"
       d="M 746.633,476.58344 A 63.216064,52.964809 0 1 1 620.20087,476.58344 A 63.216064,52.964809 0 1 1 746.633,476.58344 z"
       transform="translate(-25.455841,45.254834)" />
    <path
       sodipodi:type="arc"
       style="fill:#ffffff"
       id="path2692"
       sodipodi:cx="610.80383"
       sodipodi:cy="455.22665"
       sodipodi:rx="40.150742"
       sodipodi:ry="40.150742"
       d="M 650.95457,455.22665 A 40.150742,40.150742 0 1 1 570.65309,455.22665 A 40.150742,40.150742 0 1 1 650.95457,455.22665 z"
       transform="translate(-25.455841,45.254834)" />
    <path
       sodipodi:type="arc"
       style="fill:#ffffff"
       id="path2694"
       sodipodi:cx="557.83905"
       sodipodi:cy="418.49301"
       sodipodi:rx="35.025116"
       sodipodi:ry="25.628134"
       d="M 592.86417,418.49301 A 35.025116,25.628134 0 1 1 522.81393,418.49301 A 35.025116,25.628134 0 1 1 592.86417,418.49301 z"
       transform="translate(-25.455841,45.254834)" />
    <path
       sodipodi:type="arc"
       style="fill:#ffffff"
       id="path2700"
       sodipodi:cx="177.6884"
       sodipodi:cy="981.4577"
       sodipodi:rx="100.80399"
       sodipodi:ry="74.321587"
       d="M 278.49239,981.4577 A 100.80399,74.321587 0 1 1 76.884407,981.4577 A 100.80399,74.321587 0 1 1 278.49239,981.4577 z"
       transform="matrix(0.8676777,0,0,1.1974188,-28.203065,-231.05814)" />
    <path
       sodipodi:type="arc"
       style="fill:#ffffff"
       id="path2704"
       sodipodi:cx="308.39188"
       sodipodi:cy="984.02051"
       sodipodi:rx="53.81908"
       sodipodi:ry="47.839184"
       d="M 362.21096,984.02051 A 53.81908,47.839184 0 1 1 254.5728,984.02051 A 53.81908,47.839184 0 1 1 362.21096,984.02051 z"
       transform="translate(-65.053824,-22.627416)" />
    <path
       sodipodi:type="arc"
       style="fill:#ffffff"
       id="path2706"
       sodipodi:cx="600.90479"
       sodipodi:cy="468.79758"
       sodipodi:rx="46.018238"
       sodipodi:ry="46.018238"
       d="M 646.92302,468.79758 A 46.018238,46.018238 0 1 1 554.88655,468.79758 A 46.018238,46.018238 0 1 1 646.92302,468.79758 z"
       transform="translate(-25.455841,45.254834)" />
    <path
       sodipodi:type="arc"
       style="fill:#ffffff"
       id="path2708"
       sodipodi:cx="581.56378"
       sodipodi:cy="483.47006"
       sodipodi:rx="48.019032"
       sodipodi:ry="46.018238"
       d="M 629.58281,483.47006 A 48.019032,46.018238 0 1 1 533.54475,483.47006 A 48.019032,46.018238 0 1 1 629.58281,483.47006 z"
       transform="translate(-25.455841,45.254834)" />
    <path
       sodipodi:type="arc"
       style="fill:#ffffff"
       id="path2710"
       sodipodi:cx="662.92938"
       sodipodi:cy="456.79282"
       sodipodi:rx="78.697853"
       sodipodi:ry="75.363197"
       d="M 741.62724,456.79282 A 78.697853,75.363197 0 1 1 584.23153,456.79282 A 78.697853,75.363197 0 1 1 741.62724,456.79282 z"
       transform="translate(-25.455841,45.254834)" />
    <path
       sodipodi:type="arc"
       style="fill:#ffffff"
       id="path2712"
       sodipodi:cx="560.22205"
       sodipodi:cy="459.46054"
       sodipodi:rx="57.356064"
       sodipodi:ry="43.350513"
       d="M 617.57811,459.46054 A 57.356064,43.350513 0 1 1 502.86598,459.46054 A 57.356064,43.350513 0 1 1 617.57811,459.46054 z"
       transform="translate(-25.455841,45.254834)" />
    <path
       sodipodi:type="arc"
       style="fill:#ffffff"
       id="path2714"
       sodipodi:cx="690.27356"
       sodipodi:cy="541.49304"
       sodipodi:rx="59.356857"
       sodipodi:ry="37.348133"
       d="M 749.63042,541.49304 A 59.356857,37.348133 0 1 1 630.9167,541.49304 A 59.356857,37.348133 0 1 1 749.63042,541.49304 z"
       transform="translate(-25.455841,45.254834)" />
    <path
       sodipodi:type="arc"
       style="fill:#ffffff"
       id="path2716"
       sodipodi:cx="744.29498"
       sodipodi:cy="489.47244"
       sodipodi:rx="41.34972"
       sodipodi:ry="53.354477"
       d="M 785.6447,489.47244 A 41.34972,53.354477 0 1 1 702.94526,489.47244 A 41.34972,53.354477 0 1 1 785.6447,489.47244 z"
       transform="translate(-25.455841,45.254834)" />
    <path
       sodipodi:type="arc"
       style="fill:#ffffff"
       id="path2718"
       sodipodi:cx="750.96429"
       sodipodi:cy="454.12509"
       sodipodi:rx="52.020615"
       sodipodi:ry="51.353683"
       d="M 802.98491,454.12509 A 52.020615,51.353683 0 1 1 698.94368,454.12509 A 52.020615,51.353683 0 1 1 802.98491,454.12509 z"
       transform="translate(-25.455841,45.254834)" />
    <path
       sodipodi:type="arc"
       style="fill:#ffffff"
       id="path2720"
       sodipodi:cx="546.88342"
       sodipodi:cy="473.46609"
       sodipodi:rx="54.688339"
       sodipodi:ry="34.680412"
       d="M 601.57176,473.46609 A 54.688339,34.680412 0 1 1 492.19508,473.46609 A 54.688339,34.680412 0 1 1 601.57176,473.46609 z"
       transform="translate(-25.455841,45.254834)" />
    <path
       sodipodi:type="arc"
       style="fill:#ffffff"
       id="path2722"
       sodipodi:cx="108.04282"
       sodipodi:cy="966.32806"
       sodipodi:rx="76.030128"
       sodipodi:ry="58.022995"
       d="M 184.07295,966.32806 A 76.030128,58.022995 0 1 1 32.012695,966.32806 A 76.030128,58.022995 0 1 1 184.07295,966.32806 z"
       transform="matrix(0.9122807,0,0,0.862069,-48.907074,118.66238)" />
    <path
       sodipodi:type="arc"
       style="fill:#ffffff"
       id="path2724"
       sodipodi:cx="119.38065"
       sodipodi:cy="1026.3519"
       sodipodi:rx="38.015064"
       sodipodi:ry="31.345757"
       d="M 157.39572,1026.3519 A 38.015064,31.345757 0 1 1 81.365589,1026.3519 A 38.015064,31.345757 0 1 1 157.39572,1026.3519 z"
       transform="translate(-65.053824,-22.627416)" />
    <path
       sodipodi:type="arc"
       style="fill:#ffffff"
       id="path2726"
       sodipodi:cx="243.42981"
       sodipodi:cy="1030.3535"
       sodipodi:rx="52.687546"
       sodipodi:ry="31.345757"
       d="M 296.11736,1030.3535 A 52.687546,31.345757 0 1 1 190.74226,1030.3535 A 52.687546,31.345757 0 1 1 296.11736,1030.3535 z"
       transform="matrix(0.9746835,0,0,1.1702128,-57.557184,-203.34219)" />
    <path
       sodipodi:type="arc"
       style="fill:#ffffff"
       id="path2728"
       sodipodi:cx="363.47739"
       sodipodi:cy="981.00055"
       sodipodi:rx="110.04361"
       sodipodi:ry="44.684376"
       d="M 473.521,981.00055 A 110.04361,44.684376 0 1 1 253.43378,981.00055 A 110.04361,44.684376 0 1 1 473.521,981.00055 z"
       transform="translate(-65.053824,-22.627416)" />
    <path
       sodipodi:type="arc"
       style="fill:#ffffff"
       id="path2730"
       sodipodi:cx="67.360031"
       sodipodi:cy="322.07275"
       sodipodi:rx="75.363197"
       sodipodi:ry="48.685963"
       d="M 142.72323,322.07275 A 75.363197,48.685963 0 1 1 -8.0031662,322.07275 A 75.363197,48.685963 0 1 1 142.72323,322.07275 z"
       transform="translate(-4.8406098e-6,-186.67619)" />
    <path
       sodipodi:type="arc"
       style="fill:#ffffff"
       id="path2732"
       sodipodi:cx="148.05867"
       sodipodi:cy="293.39474"
       sodipodi:rx="56.022202"
       sodipodi:ry="53.354477"
       d="M 204.08087,293.39474 A 56.022202,53.354477 0 1 1 92.036469,293.39474 A 56.022202,53.354477 0 1 1 204.08087,293.39474 z"
       transform="translate(-4.8406098e-6,-186.67619)" />
    <path
       sodipodi:type="arc"
       style="fill:#ffffff"
       id="path2734"
       sodipodi:cx="162.73116"
       sodipodi:cy="377.42804"
       sodipodi:rx="53.354477"
       sodipodi:ry="42.683582"
       d="M 216.08563,377.42804 A 53.354477,42.683582 0 1 1 109.37668,377.42804 A 53.354477,42.683582 0 1 1 216.08563,377.42804 z"
       transform="translate(-4.8406098e-6,-186.67619)" />
    <path
       sodipodi:type="arc"
       style="fill:#ffffff"
       id="path2736"
       sodipodi:cx="78.697853"
       sodipodi:cy="369.42487"
       sodipodi:rx="70.694687"
       sodipodi:ry="49.352894"
       d="M 149.39254,369.42487 A 70.694687,49.352894 0 1 1 8.0031662,369.42487 A 70.694687,49.352894 0 1 1 149.39254,369.42487 z"
       transform="translate(-4.8406098e-6,-186.67619)" />
    <path
       sodipodi:type="arc"
       style="fill:#ffffff"
       id="path2738"
       sodipodi:cx="216.75256"
       sodipodi:cy="345.41534"
       sodipodi:rx="72.695473"
       sodipodi:ry="52.020615"
       d="M 289.44804,345.41534 A 72.695473,52.020615 0 1 1 144.05709,345.41534 A 72.695473,52.020615 0 1 1 289.44804,345.41534 z"
       transform="translate(-4.8406098e-6,-186.67619)" />
    <path
       sodipodi:type="arc"
       style="fill:#ffffff"
       id="path2740"
       sodipodi:cx="228.09039"
       sodipodi:cy="300.73099"
       sodipodi:rx="29.344963"
       sodipodi:ry="22.008722"
       d="M 257.43536,300.73099 A 29.344963,22.008722 0 1 1 198.74543,300.73099 A 29.344963,22.008722 0 1 1 257.43536,300.73099 z"
       transform="translate(-4.8406098e-6,-186.67619)" />
    <path
       sodipodi:type="arc"
       style="fill:#ffffff"
       id="path2744"
       sodipodi:cx="646.92303"
       sodipodi:cy="526.82056"
       sodipodi:rx="68.026962"
       sodipodi:ry="32.012688"
       d="M 714.95,526.82056 A 68.026962,32.012688 0 1 1 578.89607,526.82056 A 68.026962,32.012688 0 1 1 714.95,526.82056 z"
       transform="translate(-25.455841,45.254834)" />
    <path
       sodipodi:type="arc"
       style="fill:#ffffff"
       id="path2746"
       sodipodi:cx="744.29498"
       sodipodi:cy="538.82532"
       sodipodi:rx="34.680412"
       sodipodi:ry="28.011101"
       d="M 778.9754,538.82532 A 34.680412,28.011101 0 1 1 709.61457,538.82532 A 34.680412,28.011101 0 1 1 778.9754,538.82532 z"
       transform="translate(-25.455841,45.254834)" />
    <path
       sodipodi:type="arc"
       style="fill:#ffffff"
       id="path2748"
       sodipodi:cx="486.85962"
       sodipodi:cy="464.12906"
       sodipodi:rx="54.688339"
       sodipodi:ry="25.343376"
       d="M 541.54796,464.12906 A 54.688339,25.343376 0 1 1 432.17128,464.12906 A 54.688339,25.343376 0 1 1 541.54796,464.12906 z"
       transform="translate(-25.455841,45.254834)" />
    <path
       sodipodi:type="arc"
       style="fill:#ffffff"
       id="path2750"
       sodipodi:cx="569.55902"
       sodipodi:cy="452.1243"
       sodipodi:rx="94.704201"
       sodipodi:ry="45.351307"
       d="M 664.26322,452.1243 A 94.704201,45.351307 0 1 1 474.85482,452.1243 A 94.704201,45.351307 0 1 1 664.26322,452.1243 z"
       transform="translate(-25.455841,45.254834)" />
    <path
       sodipodi:type="arc"
       style="fill:#ffffff"
       id="path2752"
       sodipodi:cx="281.44489"
       sodipodi:cy="977.66589"
       sodipodi:rx="38.681995"
       sodipodi:ry="48.019032"
       d="M 320.12688,977.66589 A 38.681995,48.019032 0 1 1 242.76289,977.66589 A 38.681995,48.019032 0 1 1 320.12688,977.66589 z"
       transform="matrix(1.4482759,0,0,1.1666667,-208.55899,-193.5749)" />
    <path
       sodipodi:type="arc"
       style="fill:#ffffff"
       id="path2754"
       sodipodi:cx="333.46548"
       sodipodi:cy="1019.0156"
       sodipodi:rx="69.360825"
       sodipodi:ry="36.014271"
       d="M 402.82631,1019.0156 A 69.360825,36.014271 0 1 1 264.10466,1019.0156 A 69.360825,36.014271 0 1 1 402.82631,1019.0156 z"
       transform="matrix(1,0,0,2.1851852,-65.053824,-1273.0333)" />
    <path
       sodipodi:type="arc"
       style="fill:#ffffff"
       id="path2756"
       sodipodi:cx="392.15543"
       sodipodi:cy="970.99658"
       sodipodi:rx="48.019032"
       sodipodi:ry="52.020618"
       d="M 440.17446,970.99658 A 48.019032,52.020618 0 1 1 439.81281,964.62411 L 392.15543,970.99658 z"
       sodipodi:start="0"
       sodipodi:end="6.1603779"
       transform="translate(-65.053824,-22.627416)" />
    <path
       sodipodi:type="arc"
       style="fill:#ffffff"
       id="path2758"
       sodipodi:cx="328.13004"
       sodipodi:cy="1035.022"
       sodipodi:rx="5.3354478"
       sodipodi:ry="9.3370333"
       d="M 333.46548,1035.022 A 5.3354478,9.3370333 0 1 1 322.79459,1035.022 A 5.3354478,9.3370333 0 1 1 333.46548,1035.022 z"
       transform="translate(-65.053824,-22.627416)" />
    <path
       sodipodi:type="arc"
       style="fill:#ffffff"
       id="path2760"
       sodipodi:cx="334.79935"
       sodipodi:cy="929.64691"
       sodipodi:rx="1.3338619"
       sodipodi:ry="5.3354478"
       d="M 336.13321,929.64691 A 1.3338619,5.3354478 0 0 1 333.46825,929.99042 L 334.79935,929.64691 z"
       sodipodi:start="0"
       sodipodi:end="3.0771658"
       transform="translate(-65.053824,-22.627416)" />
    <path
       sodipodi:type="arc"
       style="fill:#ffffff"
       id="path2770"
       sodipodi:cx="643"
       sodipodi:cy="139.36218"
       sodipodi:rx="77"
       sodipodi:ry="125"
       d="M 720,139.36218 A 77,125 0 1 1 566,139.36218 A 77,125 0 1 1 720,139.36218 z"
       transform="matrix(0.91102,-0.1423733,0.1222886,0.7825021,41.2944,93.359824)" />
    <path
       style="fill:#e4c480"
       d="M 404.28089,182.47548 C 406.32046,178.39743 417.91143,164.50692 420.21956,163.37476 C 421.16121,162.91288 427.79423,160.70382 434.95959,158.46576 C 452.77669,152.9007 457.56598,151.18794 462.68589,148.55033 C 465.1041,147.30454 471.53492,144.34586 476.97657,141.97547 C 486.47901,137.83621 487.73198,137.54024 508.64212,134.49566 C 530.74451,131.27749 553.01159,129.16505 562.82681,129.35524 C 567.02519,129.43659 568.97571,129.00603 571.5379,127.43229 C 573.35372,126.317 574.90051,125.51478 574.97527,125.64958 C 575.05001,125.78437 575.647,130.25168 576.30185,135.57693 L 577.49248,145.25921 L 563.98134,147.41089 C 555.81184,148.71189 547.6348,150.62356 543.29849,152.24617 C 538.40861,154.07596 526.26613,156.74097 505.13414,160.62242 C 443.18113,172.00173 429.37514,175.09086 415.71248,180.6308 C 408.93901,183.3773 403.22845,185.6508 403.02227,185.68301 C 402.81609,185.71524 403.38249,184.27186 404.2809,182.47548 L 404.28089,182.47548 z"
       id="path2780" />
    <path
       style="fill:#e4c480"
       d="M 517.41755,235.98334 C 514.57274,235.59027 506.17893,235.79657 498.76464,236.44177 C 486.21611,237.53376 474.43041,237.65739 479.19982,236.64701 C 483.93206,235.64452 498.0717,228.23045 507.11806,222.00821 C 528.77361,207.11313 566.36253,175.33908 575.27668,164.39345 L 579.64862,159.02515 L 580.9423,163.66414 C 584.76907,177.38646 590.66529,192.71914 596.17514,203.27594 L 602.38084,215.16598 L 598.52413,220.36824 L 594.66742,225.57043 L 558.62867,231.13421 C 529.53823,235.6253 521.59268,236.56021 517.41754,235.98333 L 517.41755,235.98334 z"
       id="path2782" />
    <path
       style="fill:#e4c480"
       id="path2784"
       d="M 476.82754,241.66528 C 478.7299,240.96226 480.7079,240.50256 482.68925,240.08776 C 484.26938,239.78663 485.85251,239.50113 487.4345,239.20979 C 488.20142,234.04546 487.62389,238.51995 476.17961,247.96714 C 476.07696,248.05188 476.62441,247.97687 476.50825,247.82877 C 476.40187,247.69312 476.25432,247.58502 476.09632,247.51606 C 475.81249,247.39217 475.50108,247.34483 475.20346,247.25923 C 472.357,246.66714 469.48736,246.45117 466.58608,246.46567 C 464.6461,246.56637 463.80883,246.20823 463.06628,244.44615 C 472.53456,235.49108 471.06319,235.77931 478.16891,234.60564 C 479.72886,234.26387 481.17944,234.15045 482.67588,234.76426 C 482.90175,234.83853 483.12763,234.9128 483.3535,234.98708 L 472.38456,244.94826 C 472.15857,244.88001 471.93259,244.81175 471.7066,244.74349 C 470.34505,244.51714 469.02704,244.84338 467.68197,245.07535 C 461.56911,246.13157 457.70011,250.69137 475.92717,236.8342 C 475.69034,236.61056 475.45677,236.38344 475.21671,236.1633 C 475.15638,236.10798 474.96494,236.06227 475.02636,236.00816 C 475.17441,235.87771 476.97365,236.6163 477.18209,236.28449 C 480.19396,236.44643 483.2097,236.69753 486.14353,237.44112 C 486.57237,237.63261 487.03109,237.76779 487.43005,238.01557 C 493.33967,241.68553 481.88315,251.68429 476.887,249.7268 C 475.35569,249.93964 473.83088,250.20036 472.32317,250.54483 C 470.34893,251.01211 468.39516,251.56209 466.51925,252.3448 L 476.82754,241.66528 z" />
    <path
       style="fill:#e4c480"
       id="path2786"
       d="M 470.62388,231.59608 C 475.22588,232.97661 480.20227,232.86493 484.96933,232.80644 C 488.67127,232.88613 492.32244,232.11739 495.99678,231.87596 C 497.20433,231.7966 499.0336,231.89605 500.26809,231.94407 C 503.53541,232.15428 506.77091,232.69535 510.01681,233.12433 C 513.60851,233.48078 517.22439,233.34486 520.80959,232.99526 C 522.52543,232.80462 524.23046,232.53052 525.92968,232.22802 C 526.54897,232.11147 526.25984,232.16743 526.79727,232.06121 L 516.24702,242.58997 C 515.73445,242.65894 516.01099,242.62139 515.41743,242.70299 C 513.73409,242.93831 512.0479,243.16953 510.3484,243.25068 C 506.72109,243.45111 503.07815,243.40741 499.46026,243.06028 C 496.2425,242.66257 493.02049,242.28432 489.79547,241.97702 C 484.75263,241.78154 479.77406,242.71237 474.72895,242.7019 C 469.67326,242.6834 464.45018,242.82912 459.55817,241.39075 L 470.62388,231.59608 z" />
    <path
       style="fill:#e4c480"
       id="path2788"
       d="M 490.63147,229.85046 C 497.13053,231.23088 503.74817,231.18305 510.34977,230.91846 C 518.49826,230.69419 526.61346,229.90083 534.69401,228.86324 C 537.2485,228.83514 540.29351,227.71022 542.81302,227.62645 C 543.56097,227.60159 544.46996,227.84415 545.20037,228.00621 C 546.7408,228.48888 548.33181,228.52911 549.92653,228.41792 C 551.41266,228.27162 552.88606,228.02201 554.36112,227.79345 C 555.89566,227.54339 557.42952,227.28506 558.9698,227.07296 C 562.36153,226.58667 565.75477,226.11385 569.13673,225.56237 C 571.79674,225.1355 574.44986,224.66719 577.10894,224.23498 C 578.03829,223.70715 579.1665,223.51631 580.1051,223.02759 C 580.52288,222.81005 580.86942,222.47521 581.27168,222.23016 C 581.77325,221.85343 582.36785,221.65308 582.93891,221.41144 L 572.71178,232.18926 C 572.18495,232.46202 571.68285,232.77113 571.16648,233.06313 C 569.77103,233.82406 568.20917,234.34068 566.65308,234.64792 C 564.06198,235.03629 561.46545,235.38774 558.87515,235.78196 C 555.41458,236.29926 551.96756,236.89759 548.51833,237.48464 C 546.9754,237.75774 545.42591,237.99475 543.87713,238.23247 C 542.35983,238.46866 540.83604,238.69634 539.29823,238.73425 C 537.63829,238.7118 536.00787,238.49568 534.40519,238.04961 C 531.15484,237.57665 527.85936,238.79752 524.60646,238.82695 C 516.55361,239.63096 508.48517,240.29685 500.39611,240.60319 C 496.84979,240.73536 495.35731,240.84044 491.828,240.77859 C 488.46283,240.7196 485.14091,240.3239 481.78661,240.14217 C 481.20871,240.11086 480.62916,240.13354 480.05043,240.12923 L 490.63147,229.85046 z" />
    <path
       style="fill:#e4c480"
       id="path2790"
       d="M 449.27014,160.94268 C 454.63626,162.35579 460.09055,163.18014 465.61304,163.67872 C 470.69491,164.05421 475.79462,163.91173 480.85779,163.38099 C 482.82385,163.36536 484.39456,162.6456 486.17711,161.98515 C 487.80705,161.42458 489.48611,161.0476 491.18006,160.74506 C 491.46671,160.69719 491.76832,160.70462 492.04001,160.60145 C 492.69329,160.35338 493.24497,159.89129 493.86972,159.57824 C 495.00275,159.01049 496.10064,158.59218 497.31553,158.23377 C 499.71358,157.56358 502.15119,157.04127 504.60287,156.61112 C 506.11335,155.91152 507.6746,155.40163 509.27598,154.96058 C 509.51618,154.90687 509.78052,154.91737 509.99658,154.79945 C 510.21882,154.67814 510.33789,154.42086 510.54123,154.26999 C 511.55047,153.52118 512.76583,152.97819 513.925,152.51561 C 515.50703,151.90922 517.17036,151.62741 518.82865,151.32733 C 521.05123,151.01832 523.2674,150.66354 525.48879,150.3452 C 528.51987,149.7565 531.61193,149.81495 534.68311,149.60005 C 537.41446,149.01898 540.05305,149.72364 542.76084,150.02485 C 545.12727,150.36897 547.50348,150.44016 549.89124,150.35442 C 553.72746,150.91809 557.29064,152.33418 560.73091,154.07083 C 562.2052,154.8021 563.70333,155.48291 565.20372,156.15825 L 554.19864,165.85514 C 552.76804,165.09408 551.33491,164.33755 549.88192,163.6197 C 546.56917,162.00246 543.05683,160.68709 539.32581,160.58346 C 536.89538,160.56391 534.45899,160.46135 532.05217,160.10338 C 529.44968,159.72628 526.89814,159.34739 524.26466,159.78951 C 521.20301,159.97052 518.1298,160.08624 515.1114,160.67627 C 512.86224,161.04791 510.60336,161.3609 508.367,161.80735 C 506.78416,162.11163 505.21622,162.51815 503.7532,163.21038 C 502.15389,164.03181 500.70122,165.17058 498.91326,165.54178 C 497.32514,166.0184 495.81773,166.74732 494.1775,167.04115 C 491.79678,167.4794 489.41305,167.95091 487.1237,168.75546 C 485.00738,169.60807 483.025,170.85623 480.74646,171.22068 C 479.10866,171.57818 477.48354,172.00485 475.92001,172.61715 C 474.14114,173.27699 472.33037,173.59785 470.42476,173.61026 C 465.42631,173.85353 460.4121,173.7762 455.42585,173.33487 C 449.61172,172.78735 443.79358,172.0323 438.099,170.72065 L 449.27014,160.94268 z" />
    <path
       style="fill:#e4c480"
       id="path2792"
       d="M 414.67429,168.65474 C 413.81787,171.43608 413.31846,174.31152 412.55472,177.12112 C 412.00716,178.96009 411.53585,180.86969 410.43985,182.47 C 406.15714,186.4341 410.5793,182.36225 397.91352,192.57741 C 396.97949,193.33073 396.1568,193.85424 395.03327,194.30536 C 394.84536,194.52336 394.24322,195.13715 394.46954,194.95936 C 398.06407,192.13576 408.69729,183.47619 405.14973,186.35858 C 400.57303,190.07713 396.33852,193.98289 391.46604,197.18452 C 391.36023,197.25149 391.25442,197.31845 391.1486,197.38542 L 401.2542,186.42495 C 401.34698,186.36148 401.43976,186.298 401.53254,186.23454 C 401.86407,186.00214 402.07937,185.85462 402.41419,185.6031 C 402.61836,185.4497 403.21934,184.97454 403.0211,185.13553 C 376.75331,206.46842 401.92197,185.9629 404.38448,184.00489 C 404.62232,183.81577 404.91865,183.71508 405.18572,183.57018 C 405.92327,183.13727 406.56381,182.6542 407.24696,182.14389 C 407.46551,181.98063 408.12609,181.49843 407.91536,181.67166 C 396.61176,190.96401 393.9645,193.72571 397.64103,189.94253 C 399.35747,188.99177 399.70787,186.87537 400.35348,185.15883 C 401.20486,182.40813 401.78195,179.58774 402.29937,176.7606 L 414.67429,168.65474 z" />
    <path
       style="fill:#e4c480"
       id="path2794"
       d="M 450.89015,152.84133 C 454.53217,152.36085 457.80705,150.39054 461.0707,148.80088 C 464.08568,147.1047 466.80301,144.99571 469.52562,142.88504 C 469.88623,142.60465 470.96302,141.75718 470.60743,142.04388 C 467.16786,144.81696 463.7251,147.5861 460.27358,150.3443 C 459.8073,150.71693 461.16072,149.5447 461.62411,149.16847 C 465.59309,145.94598 469.53718,142.692 473.55389,139.52919 C 473.74218,139.38092 473.99623,139.3446 474.21741,139.25231 C 470.56882,142.14792 466.93746,145.06538 463.27165,147.93916 C 462.87576,148.24953 463.94698,147.1881 464.33642,146.86965 C 468.28998,143.63671 472.24663,140.40688 476.25105,137.23715 C 476.5161,137.02734 477.28774,136.80266 477.58798,136.70293 C 479.03223,136.26691 480.52578,136.06398 482.00967,135.81845 C 483.48799,135.60102 484.96408,135.36933 486.4417,135.14736 C 488.14281,134.86814 489.85057,134.63533 491.55595,134.38471 C 493.81403,134.03407 496.07076,133.67558 498.32826,133.32097 C 501.87225,132.79181 505.42201,132.30167 508.96309,131.75302 C 512.94822,131.11969 516.93383,130.48979 520.91541,129.83433 C 523.77535,129.18289 526.67805,129.08305 529.59403,128.9873 C 531.15116,129.11292 532.72461,128.59294 534.271,128.63894 C 535.23992,128.66777 536.19436,128.88342 537.15843,128.98441 C 539.91023,129.22574 542.66006,129.12094 545.41328,129.30288 C 547.61515,129.51123 549.7889,129.03014 551.97002,129.3277 C 554.36779,129.67455 556.78775,129.84355 559.20844,129.73708 C 560.81534,129.62585 562.40968,129.38354 563.99767,129.1206 C 564.91134,128.9773 565.82272,128.81802 566.72888,128.63283 C 566.7724,128.62347 566.81593,128.61412 566.85945,128.60477 L 556.26632,139.17852 C 556.22624,139.1832 556.18616,139.18789 556.14607,139.19258 C 555.26101,139.30323 554.37841,139.43284 553.49661,139.56675 C 551.87547,139.78595 550.25219,140.00649 548.61184,139.99705 C 546.18275,139.96148 543.77453,139.65276 541.35659,139.44215 C 539.16335,139.46946 536.96851,139.68553 534.77591,139.43947 C 532.04035,139.26175 529.29325,139.34014 526.56362,139.04118 C 524.06236,138.87698 521.58907,139.12938 519.08665,139.19548 C 516.22508,139.27968 513.41093,139.61332 510.5918,140.1156 C 506.64552,140.69873 502.70333,141.30824 498.76046,141.9138 C 495.13657,142.485 491.52222,143.1146 487.90144,143.70506 C 485.64821,144.05546 483.39455,144.40205 481.14184,144.75559 C 479.41136,145.04094 477.68406,145.34409 475.94751,145.59156 C 474.4732,145.82079 472.99565,146.02904 471.52546,146.28435 C 470.11135,146.52679 468.67971,146.80351 467.38639,147.45057 C 467.01021,147.68732 465.95605,148.50546 466.30147,148.22575 C 469.91586,145.29891 473.53765,142.38117 477.14433,139.44482 C 477.52495,139.13493 476.42527,140.11401 476.04587,140.42542 C 472.08745,143.67442 468.08679,146.87163 464.10724,150.09474 C 460.15517,153.20858 458.9965,154.12552 474.40468,141.72417 C 474.62393,141.5477 473.99289,142.10791 473.78458,142.29717 C 473.52163,142.53605 473.26655,142.78437 472.99096,143.00855 C 461.93152,152.00454 464.78712,149.79588 459.71476,153.69531 C 457.00441,155.79986 454.17006,157.74752 451.11284,159.32085 C 447.66152,160.97386 444.19753,162.73087 440.37091,163.31743 L 450.89015,152.84133 z" />
    <path
       style="fill:#e4c480"
       id="path2796"
       d="M 560.54008,121.22829 C 562.5409,121.88877 564.57871,122.45776 566.46531,123.41795 C 567.78755,123.9232 569.04601,124.56415 570.45805,124.77104 C 571.66888,124.61217 572.74107,125.20318 573.92284,125.31266 C 574.99784,125.33234 576.06321,125.18587 577.12318,125.02534 C 577.81515,124.91931 577.47566,124.97361 578.14174,124.86295 L 567.59517,135.34896 C 566.92115,135.43626 567.26834,135.39194 566.55351,135.48171 C 565.39075,135.59059 564.21672,135.66784 563.05922,135.45662 C 561.90064,135.18723 560.75809,134.95258 559.57164,134.83552 C 558.12183,134.42487 556.7386,133.82302 555.3714,133.19362 C 553.47516,132.30581 551.50783,131.65688 549.4894,131.10385 L 560.54008,121.22829 z" />
    <path
       style="fill:#e4c480"
       id="path2798"
       d="M 572.44334,114.21968 C 573.093,115.68707 574.0185,116.97295 575.01109,118.22089 L 563.55864,127.41398 C 562.51118,126.01171 561.52665,124.57506 560.58682,123.09869 L 572.44334,114.21968 z" />
    <path
       style="fill:#e4c480;fill-opacity:1"
       id="path2802"
       d="M 572.94241,223.38232 C 573.08043,224.64837 573.17554,224.92506 574.4405,225.1076 C 575.40286,225.25145 576.35087,224.95709 577.30819,225.00441 C 577.80596,225.09495 578.33269,224.94719 578.82851,225.00942 C 579.37684,225.07824 579.94603,225.30022 580.48911,225.41715 C 581.38759,225.59246 582.29723,225.56448 583.20133,225.46734 C 584.13778,225.37529 585.0538,225.12033 585.99627,225.14668 C 586.92598,225.19424 587.85641,225.16386 588.78245,225.07587 C 589.97494,225.0369 591.08003,224.67062 592.20451,224.31679 C 593.07349,223.92797 594.19098,224.03255 594.94493,223.44634 C 595.82094,222.98 596.67173,222.47934 597.53967,221.99881 C 598.2507,221.59733 599.10609,221.60404 599.8235,221.24326 C 601.87418,220.25812 606.32701,216.42199 595.109,225.1014 C 594.98033,225.20095 595.33438,224.86665 595.44204,224.74471 C 595.79181,224.34859 595.73858,224.39049 596.04169,223.92208 C 596.60948,222.73649 596.89464,221.44534 597.19313,220.17276 C 597.35638,219.10509 597.81089,218.23831 598.41791,217.37172 C 600.64813,214.58318 604.13994,212.3067 606.72665,210.22638 C 606.88232,210.10512 607.02936,209.97188 607.19367,209.86261 C 609.11444,208.58516 606.44827,210.45335 608.25552,209.27153 C 610.28147,207.94668 613.86051,204.87819 604.13739,212.62076 C 607.21511,210.00277 598.89986,217.06733 610.83866,207.1989 C 612.55481,205.78035 607.3721,209.99408 605.62665,211.37639 C 605.49273,211.48244 605.87044,211.13635 606.00295,211.02856 C 612.02912,206.12613 609.74785,207.32311 612.46734,205.93975 C 610.67728,207.36073 608.89439,208.79076 607.09716,210.20267 C 606.98161,210.29345 607.31469,210.005 607.42134,209.9039 C 607.72862,209.6126 608.00237,209.23429 608.32899,208.96819 C 610.32162,207.34489 612.33768,205.75056 614.34201,204.14174 C 612.53767,205.5876 607.145,209.95028 608.92897,208.47934 C 610.90613,206.84913 612.9192,205.26293 614.92162,203.66385 C 615.09482,203.52551 615.67282,203.19736 615.50097,203.33737 C 613.69004,204.81287 611.85404,206.25746 610.01414,207.69668 C 609.92022,207.77016 610.17814,207.52347 610.26015,207.43688 C 612.3827,204.96003 614.86182,202.68623 617.976,201.82481 C 618.24501,201.75755 618.51375,201.68004 618.79029,201.65048 L 613.49913,206.94156 C 613.2659,207.00514 613.02924,207.05684 612.80075,207.13722 C 612.47844,207.25339 612.1582,207.37948 611.86491,207.56002 C 611.75123,207.63 611.43294,207.87341 611.53615,207.78875 C 616.06091,204.07678 618.78644,201.96442 616.62323,203.64371 C 614.73424,205.85997 616.43753,203.89467 610.44366,208.76382 C 610.28095,208.89601 609.77879,209.27474 609.9417,209.14277 C 611.73969,207.68617 617.17154,203.36409 615.34146,204.78016 C 613.31416,206.34884 611.3471,207.99385 609.34991,209.60069 C 611.13834,208.14665 612.92733,206.6933 614.71521,205.23857 C 614.81954,205.15368 614.49776,205.39824 614.40052,205.49118 C 614.07456,205.80273 613.82932,206.197 613.47738,206.48424 C 611.47602,208.11773 609.45641,209.72873 607.44592,211.35096 C 605.28091,212.93697 606.5917,211.9859 612.37006,207.32393 C 612.50626,207.21406 612.11046,207.5588 611.97532,207.66996 C 609.95936,209.3282 607.8792,210.91044 605.91698,212.63193 C 604.44829,213.92045 613.48472,206.52961 610.47142,208.94235 C 606.25779,212.35967 605.8227,212.90517 602.76197,214.93946 C 602.42942,215.1605 602.10183,215.42002 601.78511,215.663 C 611.73385,207.5883 606.69857,211.46814 604.68346,213.52918 C 604.11541,214.35712 603.45118,215.08586 603.30212,216.12532 C 602.92867,217.41104 602.72319,218.74312 602.26912,220.00735 C 602.06553,220.46253 601.85718,221.00449 601.46002,221.33731 C 598.25879,224.01994 597.50572,225.53334 594.68674,226.5704 C 593.92893,226.77228 593.16648,226.97249 592.49283,227.39169 C 591.62523,227.87502 590.76165,228.36592 589.87465,228.81369 C 588.94578,229.08737 587.99101,229.26831 587.07124,229.57655 C 585.90391,229.92447 584.72019,230.16121 583.50244,230.24977 C 582.57212,230.30011 581.64159,230.27372 580.71044,230.28669 C 579.77988,230.38688 578.86016,230.57448 577.92552,230.64194 C 576.97088,230.69144 576.01865,230.62796 575.08444,230.41172 C 574.06305,230.17795 573.05888,230.06028 572.00686,230.13574 C 571.01834,230.21559 570.02006,230.32888 569.04067,230.09963 C 567.68594,229.71647 567.13594,229.13456 566.94059,227.72406 L 572.94241,223.38232 z" />
    <path
       style="fill:#e4c480;fill-opacity:1"
       d="M 604.68634,214.11178 C 604.63902,213.80902 612.44819,207.49288 612.97082,207.41119 C 613.73993,207.291 619.05375,201.69101 618.48892,201.59596 C 617.40994,201.41439 613.68545,203.66832 611.57627,205.77927 C 609.51903,207.83824 602.05708,213.80559 601.80655,213.59215 C 601.73313,213.52959 599.84722,209.8923 597.61565,205.5093 C 590.90359,192.32614 585.91971,179.76366 581.58987,165.11435 L 579.76413,158.93719 L 581.29724,156.32927 L 582.83037,153.72132 L 583.87138,156.0636 C 588.98142,167.56107 598.53986,181.52061 606.5273,189.15122 C 610.31768,192.77226 616.95431,197.93668 620.74105,200.21191 C 622.61694,201.33903 623.9959,202.44662 623.80535,202.6732 C 623.61478,202.89979 619.61013,205.41596 614.90607,208.2647 C 604.4402,214.60273 604.73657,214.43318 604.68634,214.11178 L 604.68634,214.11178 z"
       id="path2810" />
    <path
       style="fill:#e4c480;fill-opacity:1"
       id="path2812"
       d="M 580.81224,156.76417 C 581.62587,158.41972 582.29834,160.1383 583.06523,161.8155 C 584.26052,164.20584 585.15317,166.70924 585.84776,169.28464 C 586.44565,171.83853 587.13981,174.36839 587.7234,176.92556 C 588.13204,178.82326 588.43588,180.73842 588.90618,182.62226 C 589.37407,184.40025 589.75795,186.19702 590.08768,188.00516 C 590.40182,189.83711 590.70041,191.6718 590.98687,193.50828 C 591.21983,195.13858 591.68303,196.72555 592.22068,198.27849 C 592.80011,199.80759 593.27491,201.3757 593.83919,202.9095 C 594.29396,204.19348 594.94937,205.38459 595.61478,206.56756 C 596.24297,207.54644 596.89567,208.54126 597.77569,209.3135 C 598.57512,209.79062 599.38789,210.23562 600.15372,210.76727 C 600.847,211.2087 601.52734,211.58103 602.34911,211.68116 C 603.12646,211.73955 603.36017,211.54263 603.98673,212.10391 L 598.32262,216.8998 C 597.89748,216.73221 597.37107,216.89245 596.9365,216.7134 C 596.06214,216.49502 595.29388,216.07361 594.55339,215.56344 C 593.74972,215.03149 592.87869,214.60837 592.1099,214.02308 C 591.20757,213.16028 590.5134,212.12217 589.84191,211.07512 C 589.13316,209.86788 588.47563,208.62315 588.01016,207.29965 C 587.45904,205.75559 586.97207,204.18839 586.39064,202.65487 C 585.84457,201.06062 585.31952,199.44459 585.0994,197.76744 C 584.81221,195.93629 584.54063,194.10252 584.21236,192.27808 C 583.88561,190.485 583.534,188.69517 583.06241,186.93355 C 582.573,185.03637 582.27116,183.11067 581.90759,181.18608 C 581.37224,178.61811 580.73009,176.07733 580.1111,173.52896 C 579.4352,170.99751 578.57123,168.53751 577.34598,166.213 C 576.52816,164.58342 575.93954,162.83651 574.95718,161.2937 L 580.81224,156.76417 z" />
    <path
       style="fill:#e4c480;fill-opacity:1"
       id="path2814"
       d="M 577.70256,169.44653 C 578.54854,171.91414 579.97735,174.13191 581.36186,176.32525 C 582.92875,179.22237 584.60414,182.05468 586.28385,184.88687 C 587.76095,187.34252 589.30377,189.75246 590.80248,192.19445 C 592.13245,194.35514 593.26402,196.62348 594.50699,198.83321 C 595.54293,200.83046 596.74244,202.73427 597.82026,204.70724 C 598.60841,206.24383 599.47857,207.73149 600.24443,209.2795 C 600.92264,210.33608 601.56238,211.41449 602.16505,212.51602 C 602.67322,213.39355 603.4215,214.01992 604.30417,214.49015 C 604.36822,214.51919 604.43227,214.54822 604.49632,214.57724 L 598.88857,219.47068 C 598.82251,219.42804 598.75645,219.38537 598.69039,219.34272 C 597.78303,218.71378 596.95437,217.9832 596.38604,217.02118 C 595.74767,215.92508 595.12609,214.82109 594.4566,213.7436 C 593.68388,212.20358 592.91547,210.6627 592.11482,209.13673 C 591.06175,207.15218 589.84135,205.26144 588.83577,203.24942 C 587.6131,201.03657 586.46568,198.78639 585.19264,196.60128 C 583.68743,194.15572 582.12937,191.7452 580.7034,189.25142 C 579.05972,186.40846 577.34325,183.60809 575.79931,180.70761 C 574.38001,178.47996 572.9586,176.25052 571.77431,173.88604 L 577.70256,169.44653 z" />
    <path
       style="fill:#e4c480;fill-opacity:1"
       id="path2816"
       d="M 593.65251,223.19709 C 594.63937,222.00517 595.30923,220.53155 596.009,219.1489 C 596.5499,218.17057 596.99258,217.1414 597.68735,216.26013 C 614.02035,203.10106 598.10239,215.88538 598.32208,215.71279 C 600.34225,214.12575 602.31494,212.47884 604.33698,210.89421 C 604.58443,210.70029 605.09649,210.44177 605.39073,210.23637 C 609.13828,208.22815 597.94659,216.34354 601.30124,213.63437 C 603.29303,212.02584 605.29452,210.42936 607.29116,208.82686 C 609.69241,207.63941 607.96198,208.46593 602.17447,212.99755 C 602.07425,213.07603 602.35202,212.8151 602.43905,212.7222 C 602.75424,212.38575 603.05497,212.04291 603.38219,211.71765 C 607.04354,208.62751 615.66723,201.9218 604.57897,210.72362 C 604.43193,210.84035 604.86037,210.47483 605.00664,210.35715 C 610.3151,206.08625 609.12345,207.01901 611.55337,205.12315 C 614.00282,203.17895 608.31311,207.74858 606.67011,209.03239 C 606.53196,209.14033 606.91057,208.77717 607.03267,208.65135 C 607.36666,208.3072 607.71719,207.98156 608.05188,207.63815 C 610.39884,207.71946 612.49278,202.72887 615.49032,202.17967 C 615.98428,202.12037 616.4725,202.01962 616.96476,201.95027 C 611.45734,207.3038 614.02926,206.93663 611.27546,207.27736 L 616.53945,202.02519 C 619.18625,201.47966 616.84951,201.91271 611.65196,207.21591 C 611.19288,207.27073 610.73222,207.34219 610.29423,207.49586 C 607.94434,208.52289 604.63586,212.78551 614.42262,203.90603 C 613.09088,205.08972 615.12641,203.25553 613.76168,204.57445 C 611.52952,206.7317 609.06236,208.66041 606.60732,210.56683 C 606.45688,210.6802 606.01005,211.02601 606.15603,210.90694 C 607.89133,209.49152 609.63387,208.08496 611.37562,206.67748 C 611.52051,206.5604 611.09146,206.91846 610.94669,207.03569 C 608.91842,208.67785 606.90846,210.34309 604.85653,211.9556 C 603.20614,213.25258 612.43547,205.88773 609.73851,207.97817 C 607.42487,210.26477 605.1905,212.6126 602.31021,214.30543 C 604.10987,212.85296 605.9139,211.4059 607.70921,209.94805 C 607.92203,209.77524 607.29741,210.31036 607.08349,210.4818 C 605.07582,212.09066 603.06083,213.69047 601.0335,215.27446 C 600.83206,215.43185 600.56843,215.49758 600.38291,215.68043 C 600.14825,215.83275 599.90614,215.97348 599.67376,216.12919 C 599.56443,216.20245 599.25293,216.44519 599.35505,216.36219 C 601.14239,214.9098 606.54131,210.59857 604.72975,212.02065 C 601.86933,214.26608 592.33582,222.07808 604.05048,212.50474 C 603.15216,213.23271 602.75363,214.29598 602.15621,215.25936 C 601.76214,216.04688 601.33797,216.80383 600.91833,217.57498 C 600.14596,218.9943 600.999,217.55331 600.32509,218.97896 C 600.25035,219.13709 600.13758,219.27426 600.04382,219.42191 L 593.65251,223.19709 z" />
    <path
       style="fill:#e4c480;fill-opacity:1"
       id="path2818"
       d="M 608.34961,214.47693 C 607.1232,215.47135 606.10891,216.66739 605.31579,218.02709 C 604.82282,218.77548 604.96355,219.62454 604.49607,218.36558 C 605.8981,217.4388 607.19452,216.36497 608.54604,215.3666 C 608.82031,215.15399 609.09458,214.9414 609.36884,214.72881 C 609.627,214.5431 609.89113,214.36542 610.14329,214.17167 C 610.39163,213.98084 611.1158,213.38202 610.86961,213.57563 C 602.41807,220.22222 605.27148,218.18683 607.1208,216.30085 C 609.34269,213.5394 611.82653,211.98091 614.82705,209.57453 C 606.89534,219.45568 608.34333,214.51109 610.41127,212.89887 C 610.84695,212.33565 609.9126,212.03036 609.50455,211.82426 C 607.50891,211.14817 605.43444,211.44956 603.41215,211.80802 C 602.85189,212.03166 601.42927,211.98851 601.08928,212.53775 L 606.16062,207.09025 C 606.96026,207.00002 607.74245,206.78064 608.54414,206.69812 C 610.70433,206.41059 612.91793,206.20508 615.00326,207.00391 C 615.73113,207.39345 616.81774,207.89977 616.69135,208.89155 C 616.64924,209.20403 616.54265,209.30476 616.34336,209.54916 C 614.52272,211.78179 612.48539,213.17378 609.83252,215.03578 C 619.88925,206.8701 615.19099,210.20757 613.41391,212.58818 C 610.44018,215.59732 607.06648,218.17354 603.68523,220.70636 C 602.29128,221.77339 600.92397,222.92654 599.37246,223.75502 C 599.15303,223.63696 598.90938,223.55569 598.71419,223.40082 C 598.26653,223.04564 598.9826,222.26349 599.09357,221.91965 C 599.86505,220.53232 600.76359,219.269 601.9308,218.17964 L 608.34961,214.47693 z" />
    <path
       style="fill:#e4c480;fill-opacity:1"
       id="path2820"
       d="M 605.72872,215.66521 C 606.39757,214.7652 607.19274,213.9767 607.96355,213.16764 C 608.61862,212.66132 608.98668,211.948 609.41313,211.26257 C 609.47213,211.18936 609.51717,211.10226 609.59012,211.04295 C 611.56127,209.44079 613.55359,207.86484 615.54044,206.2822 C 615.59205,206.24108 615.63901,206.17049 615.70499,206.17212 C 615.79923,206.17444 615.91114,206.21247 615.96086,206.29256 C 616.51977,207.19275 616.44183,207.01538 615.95031,207.62085 C 614.20716,209.65427 612.33742,211.57783 610.28662,213.30086 C 607.98056,214.67604 603.72407,219.66742 599.92789,220.08313 C 599.03169,219.9589 598.04819,219.66399 597.35898,219.04984 C 597.09681,218.75883 597.21357,218.92211 597.01615,218.55475 L 603.00576,214.11179 C 602.89093,214.17226 602.92732,214.12675 603.05436,214.27971 C 603.63373,214.73578 604.39354,214.97111 605.12541,214.87311 C 607.84953,214.08889 613.02303,209.8295 604.10933,216.85165 C 606.15616,215.25762 608.00189,213.42058 609.63686,211.40444 C 609.74855,211.28218 609.80738,211.01898 609.97192,211.03766 C 610.23834,211.06791 610.41929,211.33665 610.61866,211.51593 C 610.78306,211.66374 610.47388,211.7709 610.50532,211.74522 C 615.72244,207.48533 617.90701,205.87174 615.77446,207.4519 C 615.1188,207.99702 615.00246,208.89377 614.33489,209.43163 C 613.50847,210.16184 612.76734,210.98662 612.03859,211.81634 L 605.72872,215.66521 z" />
    <path
       style="fill:#e4c480;fill-opacity:1"
       id="path2822"
       d="M 585.92277,179.75075 C 587.40363,182.32388 588.7435,184.97397 590.11327,187.60738 C 591.9954,191.23823 594.07565,194.75734 596.30525,198.18413 C 597.89813,200.41878 599.6439,202.52952 601.11274,204.85024 C 602.09896,206.61948 603.07423,208.3939 603.97354,210.20918 C 604.86145,211.96544 605.52268,213.82335 606.21617,215.66173 C 606.39679,216.13969 606.58018,216.61658 606.76448,217.09311 L 600.83706,221.53197 C 600.69773,221.03287 600.55368,220.53506 600.39216,220.04258 C 599.77736,218.2015 599.10141,216.37099 598.26676,214.61798 C 597.33976,212.83984 596.35606,211.09605 595.43819,209.31301 C 594.00595,206.97125 592.36025,204.78213 590.79067,202.53191 C 588.60514,199.05179 586.53741,195.50392 584.61192,191.87236 C 583.21289,189.27859 581.83442,186.64765 580.0677,184.28027 L 585.92277,179.75075 z" />
    <path
       style="fill:#e4c480;fill-opacity:1"
       id="path2824"
       d="M 603.94083,214.13066 C 605.01031,214.06844 605.87298,213.37613 606.78251,212.88548 C 608.17426,212.13468 607.17485,212.76754 608.4672,211.88596 C 609.79528,211.05626 611.07289,210.14789 612.41915,209.34825 C 610.69395,210.71642 608.97526,212.09284 607.24356,213.45279 C 606.94666,213.68595 607.79808,212.93946 608.0925,212.70316 C 610.11796,211.07761 612.14002,209.44755 614.18637,207.84836 C 615.95449,206.46659 610.68583,210.65705 608.92719,212.05086 C 608.78339,212.16483 609.20327,211.80915 609.34132,211.68829 C 611.70093,209.70945 613.80116,207.17612 616.70778,206.08169 L 611.58953,211.45813 C 611.36893,211.5757 610.19559,212.45575 610.76481,211.99187 C 617.11216,206.81921 617.76421,206.2641 615.70877,208.00005 C 612.06098,211.11904 603.39344,218.01439 614.46488,209.02369 C 614.60803,208.90744 614.17099,209.24698 614.03196,209.36814 C 613.88047,209.50016 613.75016,209.65591 613.59413,209.78252 C 611.55259,211.43917 609.49184,213.072 607.44069,214.71674 C 606.14245,215.54737 604.84297,216.37469 603.54644,217.20811 C 602.02743,218.1109 600.46761,219.09098 598.69212,219.35784 L 603.94083,214.13066 z" />
    <path
       style="fill:#e4c480;fill-opacity:1"
       id="path2826"
       d="M 609.79274,204.10473 C 609.15607,204.98321 608.77288,206.02004 608.33869,207.00938 C 608.16697,207.41223 608.06874,207.82022 608.05382,208.25521 C 608.07387,208.56342 608.0803,208.83863 608.26536,209.08527 C 609.02426,209.60166 610.22866,209.53257 611.12221,209.59283 C 612.22523,209.8686 613.31307,210.26216 614.45242,210.35068 C 614.92965,210.32139 615.31343,210.49992 615.65862,210.80737 L 609.96981,215.60577 C 609.69211,215.45545 609.37323,215.46332 609.06771,215.41412 C 607.97177,215.21357 606.92738,214.79971 605.82238,214.63635 C 604.67386,214.54783 603.39913,214.58854 602.49478,213.76342 C 602.15586,213.39626 602.00834,213.07391 601.9824,212.575 C 601.89682,212.04654 601.93541,211.52372 602.13145,211.02134 C 602.36828,210.33028 602.75714,209.71432 603.02594,209.03595 C 603.10624,208.8333 603.15065,208.61746 603.23321,208.41573 C 603.29717,208.25946 603.38726,208.11522 603.46427,207.96496 L 609.79274,204.10473 z" />
    <path
       style="fill:#e4c480;fill-opacity:1"
       id="path2828"
       d="M 613.81777,199.5993 C 614.48408,201.12104 615.78176,202.11717 616.99034,203.18862 C 618.55153,204.69395 619.93053,206.36212 621.23396,208.0906 L 615.64389,212.56566 C 614.37933,210.86714 613.02824,209.23552 611.43049,207.8346 C 610.14659,206.73189 608.8399,205.6602 607.97803,204.17207 L 613.81777,199.5993 z" />
    <path
       style="fill:#e4c480;fill-opacity:1"
       id="path2830"
       d="M 614.2163,195.15054 C 615.77699,197.70714 617.61741,200.06935 619.3846,202.48292 C 620.44296,204.10028 621.59466,205.64555 622.79921,207.15509 L 617.30372,211.56642 C 616.1496,210.01446 615.02194,208.44441 613.92483,206.8514 C 612.11617,204.46776 610.25623,202.12772 608.45766,199.73755 L 614.2163,195.15054 z" />
    <path
       style="fill:#e4c480;fill-opacity:1"
       id="path2832"
       d="M 617.53583,204.4374 C 618.13401,204.61975 618.63047,204.86342 619.16307,205.08069 L 616.19631,206.33173 C 615.62983,206.12796 615.09187,205.89517 614.40613,205.7593 L 617.53583,204.4374 z" />
    <path
       style="fill:#e4c480;fill-opacity:1"
       id="path2834"
       d="M 574.45925,126.06716 C 575.02534,128.56969 575.69887,131.049 576.41049,133.51429 C 577.06813,135.91996 578.20819,138.13717 579.31612,140.35753 C 580.29269,142.23215 580.9,144.26563 581.77718,146.18248 C 582.4848,147.64419 583.37484,148.98882 583.99602,150.49426 C 584.28919,151.22118 584.60465,151.93858 584.90733,152.66163 L 579.02401,157.1129 C 578.75976,156.37131 578.46922,155.64008 578.1536,154.91868 C 577.5902,153.40132 576.73043,152.04727 576.02909,150.59378 C 575.11776,148.68974 574.58179,146.6325 573.62779,144.74465 C 572.50077,142.47672 571.30506,140.2361 570.68918,137.76098 C 570.00215,135.3197 569.33643,132.87185 568.53741,130.46427 L 574.45925,126.06716 z" />
    <path
       style="fill:#e4c480;fill-opacity:1"
       id="path2836"
       d="M 561.15193,141.56394 C 566.99408,141.70691 572.84496,143.48885 578.66308,145.14145 L 572.53654,153.34721 C 566.48367,151.84073 560.39657,150.38022 554.3801,150.87761 L 561.15193,141.56394 z" />
    <text
       xml:space="preserve"
       style="font-size:40px;font-style:normal;font-weight:normal;fill:#000000;fill-opacity:1;stroke:none;stroke-width:1px;stroke-linecap:butt;stroke-linejoin:miter;stroke-opacity:1;font-family:Bitstream Vera Sans"
       x="-12"
       y="1044.3622"
       id="text2848"><tspan
         sodipodi:role="line"
         id="tspan2850"
         x="-12"
         y="1044.3622" /></text>
    <path
       sodipodi:type="arc"
       style="fill:#ffffff;fill-opacity:1"
       id="path3467"
       sodipodi:cx="613.76868"
       sodipodi:cy="1121.6587"
       sodipodi:rx="135.7645"
       sodipodi:ry="89.095451"
       d="M 749.53317,1121.6587 A 135.7645,89.095451 0 1 1 478.00418,1121.6587 A 135.7645,89.095451 0 1 1 749.53317,1121.6587 z" />
    <path
       sodipodi:type="arc"
       style="fill:#ffffff;fill-opacity:1"
       id="path3493"
       sodipodi:cx="578.41333"
       sodipodi:cy="1165.4993"
       sodipodi:rx="103.23759"
       sodipodi:ry="76.367531"
       d="M 681.65092,1165.4993 A 103.23759,76.367531 0 1 1 680.8734,1156.1443 L 578.41333,1165.4993 z"
       sodipodi:start="0"
       sodipodi:end="6.1603779"
       transform="matrix(1,0,0,0.7592593,0,262.19839)" />
    <path
       sodipodi:type="arc"
       style="fill:#ffffff;fill-opacity:1"
       id="path3495"
       sodipodi:cx="674.5799"
       sodipodi:cy="1093.3744"
       sodipodi:rx="72.124893"
       sodipodi:ry="77.781746"
       d="M 746.70479,1093.3744 A 72.124893,77.781746 0 1 1 746.16159,1083.8462 L 674.5799,1093.3744 z"
       sodipodi:start="0"
       sodipodi:end="6.1603779" />
    <path
       sodipodi:type="arc"
       style="fill:#ffffff;fill-opacity:1"
       id="path3497"
       sodipodi:cx="576.99915"
       sodipodi:cy="1084.889"
       sodipodi:rx="73.539108"
       sodipodi:ry="83.438599"
       d="M 650.53825,1084.889 A 73.539108,83.438599 0 1 1 649.9844,1074.6679 L 576.99915,1084.889 z"
       sodipodi:start="0"
       sodipodi:end="6.1603779" />
    <path
       sodipodi:type="arc"
       style="fill:#ffffff;fill-opacity:1"
       id="path3499"
       sodipodi:cx="537.40112"
       sodipodi:cy="1141.4576"
       sodipodi:rx="135.7645"
       sodipodi:ry="52.325901"
       d="M 673.16562,1141.4576 A 135.7645,52.325901 0 1 1 672.14313,1135.0478 L 537.40112,1141.4576 z"
       sodipodi:start="0"
       sodipodi:end="6.1603779" />
    <path
       sodipodi:type="arc"
       style="fill:#ffffff;fill-opacity:1"
       id="path3501"
       sodipodi:cx="704.27838"
       sodipodi:cy="1127.3156"
       sodipodi:rx="87.681244"
       sodipodi:ry="63.63961"
       d="M 791.95963,1127.3156 A 87.681244,63.63961 0 1 1 790.57423,1116.0474"
       sodipodi:start="0"
       sodipodi:end="6.1051843"
       sodipodi:open="true" />
    <path
       sodipodi:type="arc"
       style="fill:#ffffff;fill-opacity:1"
       id="path3503"
       sodipodi:cx="681.65094"
       sodipodi:cy="1172.5703"
       sodipodi:rx="82.024384"
       sodipodi:ry="80.610176"
       d="M 763.67532,1172.5703 A 82.024384,80.610176 0 1 1 762.37931,1158.2973"
       sodipodi:start="0"
       sodipodi:end="6.1051843"
       sodipodi:open="true"
       transform="matrix(1.2697037,-0.6966746,0.4219625,0.7690353,-715.39402,735.81181)" />
    <path
       sodipodi:type="arc"
       style="fill:#ffffff;fill-opacity:1"
       id="path3505"
       sodipodi:cx="530.33008"
       sodipodi:cy="1082.0607"
       sodipodi:rx="55.154327"
       sodipodi:ry="41.012192"
       d="M 585.48441,1082.0607 A 55.154327,41.012192 0 1 1 584.61295,1074.7989"
       sodipodi:start="0"
       sodipodi:end="6.1051843"
       sodipodi:open="true" />
    <path
       sodipodi:type="arc"
       style="fill:#ffffff;fill-opacity:1"
       id="path3507"
       sodipodi:cx="497.80316"
       sodipodi:cy="1108.9307"
       sodipodi:rx="56.568542"
       sodipodi:ry="48.08326"
       d="M 554.3717,1108.9307 A 56.568542,48.08326 0 1 1 553.4779,1100.4169"
       sodipodi:start="0"
       sodipodi:end="6.1051843"
       sodipodi:open="true" />
  </g>
  <g
     inkscape:label="over"
     inkscape:groupmode="layer"
     id="layer1"
     style="display:inline"
     sodipodi:insensitive="true">
    <flowRoot
       xml:space="preserve"
       id="flowRoot2453"
       style="font-size:40px;font-style:normal;font-weight:normal;fill:#000000;fill-opacity:1;stroke:none;stroke-width:1px;stroke-linecap:butt;stroke-linejoin:miter;stroke-opacity:1;font-family:Bitstream Vera Sans"><flowRegion
         id="flowRegion2455"><rect
           id="rect2457"
           width="60"
           height="88"
           x="26"
           y="24.362183" /></flowRegion><flowPara
         id="flowPara2459"></flowPara></flowRoot>    <path
       style="fill:#000000"
       id="path2475"
       d="M 74.275954,68.221434 C 64.214886,63.501437 53.415668,61.096834 42.506166,59.310495 C 28.388594,56.9367 14.17299,57.537411 0.066625335,59.479867 C -0.87850322,59.778095 -3.6235121,60.876155 -2.7687603,60.37455 C 5.29148,55.644459 13.895356,41.910656 21.808557,46.882826 C 26.262313,49.681293 23.933595,48.714919 29.887293,52.134848 C 32.275796,53.506854 34.755014,54.714514 37.188874,56.004347 C 52.460792,63.507562 67.386867,72.198124 77.545434,86.253469 C 79.284746,88.659974 80.628087,91.329209 82.169414,93.86708 C 84.194745,99.49803 86.148646,102.54884 85.114703,108.70826 C 84.335323,113.3512 81.162359,118.62444 77.168146,121.2066 C 49.544524,139.06459 55.367321,136.58731 36.283146,142.13607 C 26.381764,144.3765 16.833554,142.76634 7.0786114,140.93423 L 30.137104,124.79006 C 40.070721,126.43311 48.505372,127.58748 58.501337,124.91263 C 67.397793,121.77297 83.118816,115.51015 50.794321,132.04189 C 48.631684,133.14793 54.840781,129.25438 56.416571,127.40581 C 61.547603,121.38656 60.378591,114.78824 57.689864,108.0304 C 56.29255,105.58486 55.11685,102.9986 53.49792,100.69377 C 43.704702,86.751405 28.5431,78.644521 13.51308,71.5556 C 9.133366,69.405593 -0.17145835,65.556229 -3.7161411,61.839918 C -14.171729,50.878085 12.118855,43.57149 23.451889,42.083047 C 37.581775,40.841081 51.773739,40.717393 65.83119,42.944901 C 77.109471,44.852975 88.110537,47.577856 98.853232,51.545993 L 74.275954,68.221434 z" />
    <path
       style="fill:#000000"
       id="path2495"
       d="M 150.46909,74.367314 C 143.49648,89.424403 136.24441,104.34693 129.42514,119.47486 C 123.46883,134.45798 117.49483,149.82012 115.54996,165.94944 C 115.25548,168.3916 115.20317,170.8569 115.02978,173.31063 C 115.82544,182.28886 114.97456,177.873 117.59951,186.55489 L 92.530818,200.30262 C 89.507494,190.96482 90.492195,195.71158 89.53685,186.07067 C 90.055831,178.94605 89.957003,177.18069 91.46584,169.98116 C 94.269436,156.60359 99.137049,143.73707 104.13006,131.06004 C 110.59425,116.24735 117.67613,101.69817 123.61703,86.663271 L 150.46909,74.367314 z" />
    <path
       style="fill:#000000"
       id="path2497"
       d="M 115.7023,93.94069 C 117.3693,96.325746 118.45348,98.182015 120.89285,100.05705 C 129.4609,106.64295 141.45222,109.82461 151.60525,112.83168 L 128.47189,128.64155 C 117.41261,125.36352 105.62525,122.1875 96.161941,115.23704 C 93.905518,113.57978 92.042953,111.27795 90.21158,109.17602 L 115.7023,93.94069 z" />
    <path
       style="fill:#000000"
       id="path2499"
       d="M 160.81243,162.63362 C 202.37817,138.39793 184.42485,147.60751 176.75164,155.08815 C 173.44628,158.31055 171.112,161.92282 168.69511,165.81942 C 165.72871,172.13737 161.53897,181.79098 162.50131,188.91871 C 162.64209,189.96146 163.11697,190.93106 163.4248,191.93724 C 164.04767,192.63199 164.54744,193.46098 165.29341,194.02149 C 171.42502,198.62867 180.43862,194.32376 186.29723,191.56638 C 148.85345,212.68605 166.54097,205.2048 172.5881,195.75971 C 175.85365,190.65921 177.76313,184.99912 179.73166,179.32458 C 180.47427,175.83204 185.73217,162.90775 182.02284,159.94862 C 181.49571,159.5281 180.71699,159.61161 180.06407,159.4431 L 204.70472,143.29743 C 205.66451,143.97395 206.8122,144.44208 207.58409,145.32699 C 212.20596,150.62551 207.07103,161.44663 205.75587,167.09757 C 203.43391,174.43224 201.0882,182.5762 196.34579,188.8072 C 189.27996,198.09092 165.92767,208.1311 163.59625,209.48752 C 156.23433,212.25923 146.79573,215.25557 140.1344,209.10802 C 139.17538,208.22298 138.53539,207.04519 137.73589,206.01378 C 137.33926,204.74572 136.75746,203.52131 136.54601,202.20961 C 135.28394,194.38028 139.43903,184.79094 142.12911,177.60738 C 143.3978,175.37791 145.37118,171.7606 146.89691,169.6553 C 155.81291,157.35242 171.48762,151.16064 183.83829,144.00462 L 160.81243,162.63362 z" />
    <path
       style="fill:#000000"
       id="path2501"
       d="M 240.74818,203.84886 C 238.03897,210.71137 234.89847,217.3956 232.16464,224.24574 C 230.5462,228.66769 229.00284,232.92936 225.22608,235.91402 C 216.38891,240.98012 207.5872,246.10858 198.71457,251.1123 C 195.40653,252.97787 195.64134,246.20009 195.78002,244.79182 C 196.36365,239.21717 199.27542,234.43767 201.91606,229.63224 C 206.33968,222.05182 212.73408,215.8927 218.75916,209.59354 C 228.10351,200.11821 240.07645,190.38326 253.60502,189.45615 C 257.3202,190.38091 261.04458,193.70581 264.05252,196.13578 C 266.16557,198.04745 265.14756,197.11394 267.1088,198.93387 L 241.89851,214.49342 C 240.06636,212.75433 241.02751,213.62518 239.00828,211.88834 C 236.38001,209.86331 233.41406,206.71263 229.85405,207.33058 C 220.36905,210.06676 208.12041,219.73307 251.22459,194.3125 C 252.07474,193.81113 245.06781,197.48522 245.82221,198.35068 C 239.7377,204.4228 233.40911,210.48292 228.60132,217.62861 C 226.30481,222.17411 223.39304,226.55631 222.24661,231.5745 C 222.15729,233.01535 222.1435,234.4374 221.86369,234.38671 C 220.44377,234.1295 221.16479,232.64742 221.95262,232.50798 C 213.81287,237.22168 205.67313,241.93537 197.53338,246.64907 C 203.10464,243.99385 203.15969,242.1666 205.57662,236.59076 C 208.10157,229.71336 211.76644,223.27968 213.81642,216.22478 L 240.74818,203.84886 z" />
    <path
       style="fill:#000000"
       id="path2503"
       d="M 291.19626,233.55223 C 289.56644,247.21221 281.26192,258.54152 272.69366,268.78086 C 264.56147,277.21264 256.08519,285.4467 246.65684,292.43619 C 237.62562,297.63477 228.59441,302.83335 219.56319,308.03193 L 242.6457,289.53282 C 234.87106,294.08841 227.09642,298.644 219.32177,303.19959 C 229.35448,296.58751 238.07959,288.20268 246.62724,279.81167 C 254.88689,270.42699 263.27692,259.84583 264.80374,246.99989 L 291.19626,233.55223 z" />
    <path
       style="fill:#000000"
       id="path2505"
       d="M 278.1159,271.67071 C 287.03386,271.95128 295.95707,271.84711 304.87708,271.75809 C 310.46148,270.95733 315.59126,268.59784 320.89356,266.80318 C 322.11856,266.38853 323.34702,265.98434 324.57722,265.58548 L 300.99799,283.85322 C 299.8426,284.21389 298.68842,284.57848 297.54023,284.9616 C 292.20263,286.7618 286.92619,288.91758 281.19205,288.96627 C 272.19176,288.87391 263.18875,288.78051 254.19032,289.05366 L 278.1159,271.67071 z" />
    <path
       style="fill:#000000"
       id="path2507"
       d="M 277.48636,284.63358 C 279.3731,294.69004 280.21989,304.96929 279.43623,315.17215 L 253.56784,328.04256 C 254.6953,318.33257 253.95583,308.43583 251.47058,298.9616 L 277.48636,284.63358 z" />
    <path
       style="fill:#000000"
       id="path2509"
       d="M 389.19626,303.55223 C 389.05451,313.75724 388.75937,323.92581 387.51379,334.0623 C 385.47925,347.89269 378.35328,358.35785 369.87122,369.02743 C 355.16684,387.02472 342.73079,392.04039 321.29964,404.47147 C 317.65028,406.37106 313.62974,406.84669 309.94962,408.65573 C 309.52589,408.35746 309.10216,408.0592 308.67843,407.76094 L 333.23573,390.77282 C 333.26873,390.58215 333.30174,390.39147 333.33474,390.2008 C 336.95737,388.93294 340.776,388.2005 344.05942,386.07959 C 290.14959,417.6128 320.8154,400.09574 326.11474,396.35235 C 332.57117,391.7916 338.38905,386.2621 343.51411,380.26631 C 351.79131,370.27716 359.49498,359.91964 361.71786,346.78402 C 363.10313,336.91402 363.31779,326.95433 362.80374,316.99989 L 389.19626,303.55223 z" />
    <path
       style="fill:#000000"
       id="path2511"
       d="M 387.67576,289.64286 C 392.89892,290.57332 398.27524,290.25103 403.41448,291.69575 C 407.26079,292.777 408.31839,293.57107 411.84816,295.42417 C 418.96634,300.55535 425.70721,306.31922 431.83067,312.61361 C 438.51815,320.25704 442.30473,329.55801 444.8406,339.26018 C 445.21397,341.44407 445.89812,344.40685 445.67951,346.70691 C 445.49096,348.69068 444.70879,351.03798 442.83505,352.14125 C 415.56839,368.19591 424.55711,366.54704 409.49469,368.33151 C 404.63263,368.77908 399.75272,368.96299 394.87361,369.08706 C 392.10878,369.15737 389.32963,368.91137 386.65704,369.65734 C 394.97789,365.00682 403.18664,360.14977 411.61961,355.70578 C 411.97971,355.51601 411.1001,356.38866 411.06612,356.79428 C 410.99575,357.63427 411.20862,358.47468 411.31761,359.31054 C 411.87458,363.58184 412.5981,367.83379 413.17573,372.10332 C 414.45886,380.49523 414.69808,388.97297 414.92566,397.44185 C 415.19636,403.30291 414.9629,409.16299 412.9232,414.70152 C 404.41364,428.38168 389.7077,432.97078 375.16299,433.03707 C 367.19546,432.84229 359.20511,433.32176 351.27505,432.29796 C 344.35614,431.40471 343.14469,430.85402 336.42269,429.08361 C 325.35504,425.9603 314.51188,422.24086 303.31227,419.57526 L 327.05283,403.21076 C 338.08896,406.17694 348.86813,409.93621 359.90069,412.89582 C 362.29262,413.47057 364.65903,414.16444 367.07649,414.62007 C 377.54902,416.59386 388.2236,416.04131 398.80708,415.71689 C 401.08965,415.54971 402.6498,415.53462 404.82087,415.06214 C 405.46019,414.92301 407.26246,414.16589 406.70312,414.50535 C 399.36907,418.95642 376.94009,431.51148 384.7082,427.87048 C 385.17434,427.652 385.52503,427.24369 385.93344,426.93029 C 389.02172,422.20634 389.00648,416.19519 388.95337,410.74292 C 388.83309,402.36522 388.50345,393.9801 387.44024,385.66146 C 386.85354,381.44729 386.20374,377.27879 385.30582,373.11823 C 384.91519,371.30825 383.96061,367.57157 384.20691,367.39725 C 392.49577,361.53059 401.68885,357.05928 410.42983,351.8903 C 417.8717,351.90624 425.3452,352.00996 432.72287,350.83506 C 445.79629,347.80436 436.82604,349.38875 415.49842,362.99599 C 414.69609,363.50789 417.39472,362.5258 418.15796,361.95724 C 420.85255,359.94993 419.43475,355.70821 419.27199,353.09098 C 417.04026,343.81829 413.55835,334.91974 406.93517,327.83934 C 400.97975,321.83949 394.62101,316.06588 387.53823,311.4329 C 384.11307,309.84481 383.24937,309.21785 379.56042,308.39499 C 374.37553,307.23845 368.94591,307.33956 363.67353,307.0815 L 387.67576,289.64286 z" />
    <path
       style="fill:#000000"
       id="path2513"
       d="M 435.92397,409.32283 C 441.45101,413.57472 445.95551,418.88585 450.51789,424.10325 C 453.37269,426.92474 456.63576,429.33963 460.18856,431.21277 C 462.32345,432.96604 463.81697,435.0555 461.72571,437.53676 C 453.08366,445.68545 461.95169,437.48462 433.80419,453.96839 C 425.81187,458.64886 466.24034,436.09902 457.91613,440.16001 C 448.59516,444.70728 439.9835,450.59591 430.80805,455.43007 C 422.73245,459.68476 446.62067,446.30458 454.61506,441.8992 C 455.33509,441.50243 453.30654,442.89482 452.65228,443.39262 C 447.65177,448.4841 445.87538,455.59251 443.24703,462.03157 C 440.13053,469.52945 439.57624,477.62637 439.15729,485.6356 C 438.88676,492.999 438.88353,500.37038 439.12096,507.73436 L 412.77929,521.16759 C 412.9618,513.68164 413.00385,506.19353 413.21717,498.70821 C 413.51746,490.48231 413.71232,482.11559 416.65291,474.31319 C 417.55359,472.08731 418.64719,469.94002 419.48602,467.69011 C 421.1709,463.17093 422.37439,458.47735 425.3174,454.51595 C 434.51941,445.13081 424.12501,455.42009 454.03432,437.00861 C 461.85232,432.19602 422.08686,455.10598 430.19936,450.80835 C 522.04844,402.15095 411.67995,457.80369 434.21578,448.86314 C 434.53271,448.62559 434.78056,448.23913 435.16659,448.15049 C 435.52306,448.06863 435.87901,448.31646 436.23522,448.39944 C 436.38314,448.52461 436.4895,448.8155 436.67898,448.77494 C 436.98611,448.7092 435.47368,447.58608 435.22747,447.39662 C 431.64231,445.07601 428.23326,442.43039 425.35895,439.25786 C 421.05094,434.14122 416.707,428.87197 410.94684,425.31541 L 435.92397,409.32283 z" />
    <path
       style="fill:#000000"
       id="path2515"
       d="M 398.49906,485.49059 C 397.46868,478.46739 395.62184,472.44616 391.21181,466.83206 C 387.92148,463.88031 384.36425,459.90832 379.64732,459.82808 C 370.25912,463.7053 358.67217,470.33242 401.10555,447.47524 C 401.74948,447.12838 399.92622,448.35143 399.41716,448.87659 C 398.29673,450.03246 396.9407,452.14218 396.06903,453.41085 C 392.19167,458.97102 390.03263,465.4193 387.28112,471.55444 C 387.1091,472.10579 386.13332,474.37492 386.62148,475.27826 C 387.21104,476.36924 397.66644,477.87627 398.79476,478.11373 C 400.54118,478.62706 402.2876,479.14039 404.03402,479.65372 L 380.18298,496.0268 C 378.45527,495.58875 376.72757,495.15071 374.99987,494.71266 C 370.29595,493.87043 359.74806,493.59293 359.97234,486.51817 C 360.00212,485.57857 360.37392,484.68142 360.57471,483.76305 C 363.40953,477.54295 365.70936,471.093 369.11485,465.14962 C 375.01315,456.67678 366.9351,468.47841 372.13733,460.25587 C 378.62502,450.00157 391.81144,441.99243 403.93594,442.85386 C 408.952,444.46972 412.88053,448.02034 416.41037,451.84561 C 421.20927,458.27141 422.86981,463.64617 424.544,471.40602 L 398.49906,485.49059 z" />
    <path
       style="fill:#000000"
       id="path2517"
       d="M 508.80389,431.67999 C 504.11395,445.8756 499.73925,460.17538 494.65646,474.25428 C 489.97619,486.02429 484.90467,497.67323 481.18808,509.79925 C 479.42706,519.77207 481.04742,511.45301 454.63716,521.80699 C 453.98417,522.06299 455.51212,520.71016 455.96867,520.17772 C 457.23917,518.69604 458.80605,516.84288 460.4874,515.82621 C 469.74108,510.23075 479.17937,504.94643 488.52535,499.50654 C 497.39594,495.37085 499.93438,498.74899 504.72518,506.18914 C 507.46907,511.90337 510.56916,518.40279 509.51912,524.958 C 509.32502,526.1697 508.84613,527.31823 508.50964,528.49834 C 507.77416,529.58549 507.22065,530.82111 506.30321,531.7598 C 505.26488,532.82218 504.02848,533.70372 502.72525,534.41671 C 484.46056,544.40922 481.28896,550.75791 466.13289,550.61562 C 459.27829,550.55127 457.85433,549.846 451.05187,548.33627 C 442.91625,545.88068 435.04105,542.67258 427.43033,538.9117 L 451.81791,522.92099 C 458.95868,526.83698 466.46282,530.05823 474.38088,532.06913 C 480.77725,533.16156 482.76959,533.91036 489.18465,533.46973 C 491.30119,533.32435 497.09439,531.09247 495.46772,532.45439 C 489.45993,537.48436 482.0594,540.57413 475.52848,544.90324 C 474.36426,545.67495 478.15,543.89019 479.33385,543.14895 C 480.30618,542.54016 481.06667,541.64511 481.93308,540.89318 C 482.37271,539.93684 482.94161,539.02991 483.25196,538.02415 C 485.03733,532.23834 481.882,526.05709 479.47751,520.97629 C 474.70107,514.01626 473.0991,514.07937 465.72723,517.93919 C 473.0746,513.63287 480.42197,509.32656 487.76934,505.02024 C 486.86068,505.57952 485.88966,506.04828 485.04337,506.69807 C 484.35178,507.22908 483.76932,507.89186 483.18565,508.53962 C 482.75548,509.01703 482.5812,509.775 482.0084,510.0663 C 453.61923,524.50354 451.6816,533.183 454.46282,522.27126 C 459.40403,510.23036 463.94632,498.029 469.21971,486.12343 C 474.20652,472.3182 479.00605,458.36717 481.7607,443.91518 L 508.80389,431.67999 z" />
    <path
       style="fill:#000000"
       id="path2519"
       d="M 514.87327,531.88001 C 513.38803,539.37897 511.39792,547.30026 511.92733,555.02157 C 512.01065,556.23681 512.38819,557.41376 512.61862,558.60986 C 513.16486,559.457 513.51877,560.46531 514.25733,561.15128 C 519.08007,565.63067 528.42805,559.78132 532.94608,557.62652 C 492.19299,580.79093 515.51288,568.87778 523.0237,560.64064 C 530.9088,551.03207 499.11047,566.38746 551.11665,547.25257 C 551.7184,547.03116 551.33006,548.52627 551.30442,549.16695 C 551.18578,552.13142 550.67986,553.07627 549.80015,556.02441 C 545.75845,570.23033 539.33154,583.40605 532.25217,596.30026 C 521.63001,613.90738 509.48046,630.71791 492.89411,643.18608 C 490.30085,645.13547 487.48978,646.77683 484.78761,648.57221 C 473.51871,654.71871 456.73203,670.95858 441.3608,664.06926 C 437.34241,662.26823 435.84583,659.57607 434.52492,655.65067 L 460.40745,641.57105 C 460.9977,644.62888 462.1091,646.4739 465.28005,647.6309 C 475.54069,651.37475 490.16622,639.10653 458.64799,658.73792 C 461.49118,656.99903 464.44905,655.43506 467.17758,653.52126 C 484.29709,641.51354 496.07828,625.4764 506.70824,607.74753 C 513.50518,595.20064 519.85715,582.41889 523.31131,568.48493 C 524.14303,566.16543 524.68306,565.15636 524.95731,562.82779 C 525.00914,562.38767 524.52851,561.71656 524.91459,561.49901 C 533.62121,556.593 542.70009,552.37912 551.59284,547.81918 C 550.6495,548.17431 551.14486,547.86448 550.34595,549.05111 C 540.44283,561.64825 522.27617,567.08981 510.24489,575.64033 C 503.7088,578.43732 494.71747,582.55328 488.92379,575.86963 C 488.0374,574.84707 487.54511,573.54057 486.85577,572.37604 C 486.57084,570.96334 486.11232,569.57479 486.00098,568.13795 C 485.40655,560.46641 487.58387,552.31014 488.16979,544.6721 L 514.87327,531.88001 z" />
    <path
       style="fill:#000000"
       id="path2521"
       d="M 499.89583,695.65678 C 511.42599,696.28556 522.88288,695.69267 534.37536,694.78919 C 556.49455,693.21103 576.51229,684.27538 595.90249,674.18554 C 591.58313,676.58734 587.56716,679.64293 582.94439,681.39095 C 579.6121,682.651 588.98717,677.61495 591.97291,675.67144 C 599.19742,670.9688 606.09798,666.10731 612.51536,660.35761 C 614.31575,658.67025 615.96643,656.83395 617.418,654.83939 C 617.90087,654.17591 618.41744,653.33338 618.4196,653.33405 C 618.70792,653.42423 618.67901,653.8797 618.80871,654.15253 C 656.3088,635.53401 646.82947,634.06285 643.45485,646.02296 C 642.45547,649.56491 641.60833,653.1755 640.68138,656.73802 C 637.92156,667.56435 634.47562,678.22261 630.52113,688.67012 C 626.5747,699.19012 622.53762,709.67382 618.63474,720.21072 C 615.92348,726.55955 613.38098,733.26335 607.83043,737.65695 C 594.6854,747.00105 580.86843,754.09422 565.8737,759.23371 C 555.40009,762.38994 545.84979,761.30482 535.5329,758.28145 C 523.25238,752.63474 513.16248,743.29854 503.669,733.85765 C 502.54573,732.84432 501.42245,731.831 500.29918,730.81767 L 525.06043,715.54252 C 526.15758,716.62138 527.25473,717.70023 528.35188,718.77909 C 537.21271,728.2088 547.08888,737.17652 559.30419,741.94184 C 569.52429,744.40606 578.8625,744.95077 588.90494,741.23075 C 592.18181,739.9499 595.53437,738.74882 598.75367,737.32728 C 599.70333,736.90794 602.445,735.43065 601.55138,735.95899 C 590.35589,742.57819 569.95238,754.15179 580.2486,748.30822 C 586.87513,745.3816 589.45772,738.57919 592.4511,732.40217 C 596.35981,721.85196 600.3636,711.3518 604.3086,700.81707 C 608.4402,690.59856 611.78147,680.04668 614.43587,669.34998 C 614.74583,667.90262 615.05579,666.45527 615.36575,665.00792 C 615.67835,663.8856 616.04411,662.77675 616.30356,661.64096 C 617.64182,655.78232 615.9962,661.43808 617.37413,656.22971 C 617.53918,655.60582 617.39383,654.70968 617.94924,654.38103 C 626.79096,649.14929 636.0577,644.67164 645.11193,639.81694 C 645.28214,640.23189 645.58865,640.61457 645.62257,641.06179 C 645.74926,642.73197 640.3689,648.27709 639.48635,649.35446 C 637.63598,651.02105 633.46193,654.82972 631.69839,656.17919 C 613.92152,669.78216 593.28027,679.51534 574.48336,691.35576 C 554.23903,701.60263 534.48388,710.01751 511.54925,711.65729 C 499.68542,712.64888 487.83728,713.06844 475.93192,713.06758 L 499.89583,695.65678 z" />
    <path
       style="fill:#000000"
       id="path2539"
       d="M 564.37977,798.78422 C 565.55101,799.11927 566.69279,799.58356 567.8935,799.78937 C 573.35832,800.72605 579.20423,800.19902 584.35014,798.09422 C 586.59307,797.17681 592.91069,793.54725 590.77029,794.68349 C 584.98432,797.75502 579.19905,800.82787 573.41343,803.90006 C 587.375,792.82962 597.73034,778.20397 607.3575,763.39938 C 613.10871,754.09082 628.14976,722.5029 641.33332,738.68338 C 643.62459,742.80489 644.44821,747.5214 646.16709,751.85406 C 646.71105,753.22516 650.18775,760.04112 650.68406,761.02594 C 653.98445,766.47778 657.64335,771.68944 661.78132,776.53239 L 636.70226,791.55223 C 632.68075,786.38471 629.02333,780.94323 625.59636,775.36304 C 625.03611,774.31771 621.18144,767.19281 620.62298,765.90036 C 618.98715,762.11454 618.3134,757.87687 615.96503,754.39196 C 620.7002,763.94545 615.85558,754.98599 640.89181,740.43171 C 641.35618,740.16176 640.21648,741.2697 639.92528,741.72104 C 637.76643,745.06711 635.96761,748.65346 633.62865,751.88833 C 623.68955,766.77733 613.28521,781.634 599.76102,793.52529 C 589.32889,799.8423 579.03581,806.39486 568.46463,812.47632 C 559.69741,817.51998 549.49417,818.15643 539.92645,815.37555 L 564.37977,798.78422 z" />
    <path
       style="fill:#000000"
       id="path2541"
       d="M 636.32424,837.0815 C 632.0072,837.6399 628.07791,838.718 624.1407,840.61604 C 622.35117,841.47873 617.13951,844.37499 618.89052,843.43658 C 640.41627,831.90038 643.70635,827.35712 634.49188,837.33487 C 630.4283,843.66154 624.61299,854.40131 631.93539,860.83784 C 633.01326,861.78531 634.42354,862.26863 635.66761,862.98403 C 637.21245,863.1742 638.74569,863.56894 640.30213,863.55453 C 643.86858,863.52153 648.30971,862.46023 651.58691,861.18142 C 653.40139,860.47339 658.50908,857.61275 656.82283,858.58756 C 633.85983,871.86234 631.3994,874.73644 640.56485,866.18441 C 644.42621,860.73561 649.60614,852.09866 645.26626,845.41489 C 644.6903,844.52787 643.80319,843.8873 643.07166,843.12351 C 642.24471,842.54995 641.41776,841.97639 640.59081,841.40284 L 665.41065,825.73152 C 666.31534,826.47787 667.22004,827.22422 668.12473,827.97058 C 669.00669,829.01967 670.062,829.94469 670.77061,831.11786 C 675.45565,838.87434 671.38049,848.10083 667.26481,855.05282 C 656.49874,867.63278 663.7402,860.10721 634.2216,876.49892 C 629.19747,879.28883 622.22344,880.79287 616.50518,880.12642 C 614.69403,879.91533 612.98714,879.16583 611.22812,878.68554 C 609.78028,877.66565 608.13593,876.87911 606.8846,875.62589 C 599.09885,867.82836 603.5177,856.71729 608.01076,848.56854 C 618.76849,834.61907 611.03643,843.40867 641.37283,825.43075 C 647.12898,822.01955 653.70357,820.20529 660.32647,819.64286 L 636.32424,837.0815 z" />
    <path
       style="fill:#000000"
       id="path2543"
       d="M 692.30271,892.01322 C 682.02376,899.79683 672.7916,908.86073 663.05222,917.29869 C 654.60855,924.33382 622.81221,950.3555 619.25092,940.80898 C 618.75863,939.48934 619.15446,937.99369 619.10623,936.58604 C 619.97801,934.99967 620.6828,933.30935 621.72155,931.82695 C 624.40177,928.00203 628.70696,923.93834 632.00729,920.8078 C 638.87295,914.29534 646.05602,908.55696 653.68166,902.97217 C 668.90079,893.70765 669.54416,893.18241 692.77744,880.77828 C 698.50569,877.71999 705.99956,875.3247 712.46103,874.44474 C 718.53072,874.8437 724.3013,875.39344 727.61596,881.32355 C 728.41172,882.74721 728.82522,884.35304 729.42985,885.86778 C 732.67133,897.45996 732.4176,908.24341 728.26217,919.49352 C 727.6696,920.58744 727.21883,921.77103 726.48446,922.77526 C 725.75313,923.77532 724.97573,924.82779 723.90524,925.4515 C 714.284,931.05726 704.69358,936.80386 694.54438,941.38495 C 690.9421,943.01093 678.7139,938.65247 675.2863,937.52329 C 666.11371,933.62433 670.54409,935.60637 661.98392,931.60233 L 685.8873,915.79886 C 694.16769,919.75444 689.8499,917.86017 698.86184,921.43314 C 703.61768,922.74922 707.20981,924.10907 712.16707,924.15815 C 713.95411,924.17585 718.88855,922.38014 717.48643,923.48824 C 711.096,928.53861 703.63096,932.05578 696.71978,936.36616 C 695.73853,936.97815 698.84653,935.36816 699.69621,934.58368 C 700.57835,933.76923 701.1051,932.6392 701.80954,931.66697 C 706.81073,921.2187 707.29063,911.22401 704.01387,900.08675 C 703.50063,898.86883 703.15161,897.5678 702.47415,896.433 C 699.69295,891.77432 693.76293,891.8047 689.03032,892.08048 C 684.77799,892.96923 680.72943,894.24157 676.69012,895.87165 C 674.63308,896.70178 668.77161,899.80027 670.58847,898.52766 C 676.09255,894.67236 699.85952,881.24124 679.86796,892.61815 C 667.28603,901.51192 654.83334,911.27172 645.62102,923.7632 C 644.2319,925.04483 643.75824,925.03226 644.75354,924.88928 C 637.27532,929.36152 629.7971,933.83377 622.31889,938.30601 C 621.04217,939.08583 625.01834,936.99689 626.27074,936.1786 C 629.34495,934.16996 633.91952,930.23919 636.63204,927.99789 C 642.4643,923.10055 648.16834,918.0395 653.77186,912.88072 C 655.3996,911.38218 660.03083,906.71451 662.01304,905.07602 C 662.89584,904.34631 663.88867,903.761 664.82648,903.10349 L 692.30271,892.01322 z" />
    <path
       style="fill:#000000"
       id="path2609"
       d="M 705.90907,117.08622 C 706.67394,108.00435 706.71605,98.38625 704.07143,89.563961 C 703.38979,87.29004 702.3447,85.14132 701.48133,82.93 C 694.19026,68.645115 681.15464,58.800238 668.77277,49.145046 C 658.13203,42.330249 647.39007,35.385849 635.62493,30.634085 C 628.72028,27.845408 627.50553,27.786297 620.498,26.029272 C 612.79009,24.676745 604.49055,23.294321 597.0559,26.681833 C 595.49855,27.391416 591.37229,30.472985 592.68432,29.374175 C 598.46588,24.532202 604.55913,20.075059 610.49652,15.425502 C 599.44971,27.104046 595.13737,42.69336 592.32775,58.110363 C 590.55685,69.861234 591.29464,81.707518 592.70957,93.438777 C 592.92638,98.651654 595.92452,103.70179 594.41367,108.88635 C 586.2554,115.33387 578.36267,122.13243 569.93882,128.2289 C 568.4864,129.28006 558.90119,128.83414 557.32807,128.89685 C 550.55063,129.16703 549.02064,129.35029 541.94367,129.88267 C 525.27213,131.32994 508.68988,133.61804 492.15352,136.15184 C 485.92579,137.91169 479.79507,140.23811 473.93841,143.00248 C 469.64126,144.73647 465.26197,146.10421 461.31317,148.58247 C 458.29483,150.27527 455.19233,151.89024 451.81628,152.70947 C 451.1751,152.81117 450.50845,152.80879 449.89272,153.01458 C 448.21033,153.57681 446.69993,154.57382 445.03851,155.19528 C 441.35152,156.57438 437.55716,157.56946 433.7505,158.54768 C 427.45173,159.90691 421.39817,162.13275 415.55485,164.80237 C 413.24,165.76456 411.2295,167.21585 409.39432,168.86861 C 408.99135,169.23154 407.70312,170.22714 408.12551,169.887 C 415.2882,164.11887 422.452,158.35212 429.61524,152.58467 C 426.81213,155.04025 424.35139,157.84147 421.558,160.30424 C 419.00199,163.01101 416.54415,165.80168 414.08105,168.59169 C 411.3995,171.70516 408.78705,174.75246 406.43059,178.12795 C 403.1725,182.97835 400.10298,187.94531 397.08729,192.94826 C 396.72298,192.72746 395.19425,196.323 395.07633,196.22074 C 394.50763,195.72757 394.52323,193.91884 393.87807,194.30663 C 381.92912,201.48882 362.42872,217.65104 371.60168,210.06997 C 382.88575,204.14304 391.73588,191.23552 404.0946,185.88642 C 407.08639,185.20263 409.32614,183.2725 412.20951,182.30136 C 416.08975,181.53157 419.15498,179.49139 422.84932,178.10944 C 428.28359,176.21109 433.83508,174.73386 439.4729,173.59321 C 444.50603,172.66284 449.57425,171.92706 454.63782,171.18253 C 459.84813,170.45795 464.98575,169.81006 469.92424,167.9836 C 474.24805,166.35768 478.83781,165.63611 483.3508,164.73224 C 486.97863,164.0526 490.62151,163.45363 494.26884,162.8887 C 497.27533,162.40879 500.28799,161.96751 503.29361,161.48228 C 506.23266,161.03556 509.16749,160.56227 512.10573,160.11057 C 516.47716,159.42602 520.85931,158.81279 525.23544,158.15811 C 531.93733,157.27127 538.09426,154.14628 544.46137,151.98268 C 548.21222,150.67319 552.09035,149.89085 555.98673,149.17769 C 558.94835,148.70129 561.9136,148.24671 564.87997,147.80063 C 567.84757,147.3359 570.81965,146.89855 573.78493,146.41911 C 576.01562,146.06166 578.24468,145.69185 580.47732,145.34662 C 582.77955,144.81457 584.05674,147.20315 584.07752,149.24197 C 584.08701,150.17246 583.06654,152.81424 582.81698,153.52831 C 578.95809,160.50275 573.34825,166.36394 567.80135,172.02094 C 553.80728,185.91168 537.73672,197.84052 522.43678,210.15922 C 571.03016,171.17991 517.55084,214.15849 515.07149,216.11254 C 512.2247,218.35619 511.2576,218.5392 508.30479,220.41875 C 505.74598,222.04752 504.91457,222.78514 502.54572,224.63271 C 498.60271,228.52053 493.1146,229.73111 488.56269,232.50737 C 482.40865,235.63627 475.63198,237.28585 469.0821,239.40149 C 462.11794,241.27467 455.62768,244.38852 448.83595,246.79545 C 441.51968,248.8937 434.05226,250.4102 426.57137,251.78529 C 424.20453,252.60793 421.40224,252.2004 419.05217,253.04383 C 417.67529,253.53801 415.17469,255.34139 413.71599,256.0829 C 410.03062,257.69699 406.16596,258.75207 402.27003,259.70564 C 394.58687,266.5007 392.24631,268.54474 424.12833,242.48353 C 424.48917,242.18855 423.30007,242.60456 423.17506,241.70562 C 423.10316,241.18851 424.21696,241.54339 424.737,241.58947 C 425.20503,241.63265 425.68488,241.60584 426.14107,241.71901 C 426.8223,241.88801 427.46251,242.19268 428.12322,242.42951 C 428.81398,242.63226 429.49428,242.87491 430.19552,243.03777 C 432.39831,243.5494 434.66691,243.75423 436.91513,243.92218 C 441.78902,244.01625 446.6431,243.27381 451.4502,242.54185 C 454.96137,242.00485 458.46112,241.39798 461.96854,240.83788 C 464.95407,240.3448 467.94756,239.90121 470.93419,239.41511 C 473.87402,238.96591 476.81002,238.49264 479.74943,238.04081 C 483.19983,237.3182 486.71534,237.82849 490.22075,237.84643 C 494.51318,237.76634 498.76917,237.09594 503.01007,236.48003 C 505.09042,236.42498 507.17591,235.48686 509.25818,235.50763 C 511.6525,235.53151 514.2802,236.21877 516.65952,236.54207 C 522.40664,237.33536 528.19358,236.41205 533.90057,235.70628 C 541.84032,234.64396 549.74933,233.37365 557.65286,232.07351 C 563.65218,231.05053 569.67453,230.17247 575.68704,229.2323 C 580.46276,228.49643 585.22359,227.66925 589.99254,226.892 C 592.81384,226.42183 595.64436,226.00973 598.46776,225.553 C 599.57122,225.19098 600.85674,225.37515 601.95067,225.00027 C 602.76113,224.72254 603.45437,224.17881 604.20807,223.77151 C 596.89435,229.49896 589.58063,235.22639 582.2669,240.95383 C 585.05547,238.72599 587.50571,236.17508 589.92416,233.56383 C 592.75606,230.09779 595.35685,226.40985 597.74482,222.622 C 599.1048,220.46692 600.58992,218.39632 602.068,216.3219 L 627.56206,200.80012 C 625.96952,202.86365 624.41931,204.96023 622.92245,207.09427 C 620.36333,210.83234 618.06471,214.74569 615.24385,218.28027 C 613.19939,221.22131 610.62427,223.70756 607.96789,226.08298 C 592.46636,238.33349 591.16704,244.87527 577.40405,246.53026 C 574.58908,246.95441 571.78102,247.42356 568.964,247.83455 C 564.2766,248.53572 559.58171,249.18723 554.90133,249.93538 C 548.8905,250.88202 542.89051,251.89749 536.86898,252.77526 C 528.96659,253.95642 521.07063,255.18808 513.15038,256.24378 C 507.17781,256.99454 501.13968,257.85245 495.14805,256.77254 C 490.70491,256.20404 486.46859,256.34954 482.06829,257.26955 C 477.69116,257.85948 473.29207,258.54588 468.86223,258.40945 C 465.45163,258.32991 462.05642,258.22547 458.70386,258.99997 C 455.76387,259.4668 452.82055,259.91196 449.88145,260.38456 C 446.89805,260.83566 443.92165,261.33271 440.9402,261.79629 C 437.45595,262.35669 433.96705,262.89224 430.46886,263.35837 C 425.49111,263.96327 420.45531,264.70682 415.43573,264.23622 C 411.20226,263.68073 407.11077,262.59843 402.93176,261.77087 C 387.738,257.1456 413.49397,239.10959 423.14196,238.54394 C 426.88826,237.59026 430.56259,236.34899 434.00277,234.56304 C 438.6183,232.21516 442.23663,231.66992 447.35016,230.98777 C 454.71654,229.66007 462.09671,228.2143 469.17917,225.74086 C 475.9277,223.24431 482.4969,220.26912 489.47619,218.4323 C 496.02699,216.28483 502.76999,214.51622 508.76391,211.00083 C 513.55929,208.78669 518.22366,206.42907 522.28388,202.96998 C 525.22151,200.88245 528.29131,199.03195 531.2618,196.99789 C 532.39971,196.21869 535.67434,193.69111 534.61418,194.57317 C 534.51807,194.65313 471.75799,245.64142 541.92396,188.63569 C 506.07757,217.64687 523.80109,203.28399 531.59105,196.77375 C 533.1436,195.47626 537.88814,191.74023 539.42683,190.29123 C 540.59722,189.18907 541.64199,187.9607 542.74956,186.79543 C 548.17405,181.34053 553.56246,175.79834 557.89136,169.40472 C 558.25664,168.81511 558.7157,168.27414 558.98721,167.6359 C 559.22384,167.07961 559.0498,166.36483 559.3955,165.86889 C 559.83789,165.23422 561.58932,166.24556 559.35929,166.37808 C 557.15169,166.72675 554.94,167.05129 552.73006,167.38472 C 549.76012,167.82829 546.79624,168.31212 543.82616,168.7548 C 540.88365,169.21285 537.93495,169.63583 535.00906,170.19389 C 531.26246,170.90906 527.57285,171.88624 523.96557,173.13079 C 517.55623,175.37614 511.23635,178.10412 504.42691,178.88132 C 499.97055,179.60709 495.52097,180.37351 491.06002,181.06969 C 488.12023,181.53615 485.17714,181.98105 482.23742,182.44795 C 479.23533,182.89524 476.23914,183.38211 473.23801,183.83569 C 469.6531,184.40515 466.06451,184.95651 462.50385,185.66676 C 458.02198,186.55367 453.58711,187.61817 449.29385,189.20441 C 444.24364,190.6561 438.96838,190.97977 433.81054,191.92006 C 428.75042,192.74603 423.67695,193.50434 418.65488,194.54556 C 413.1659,195.75034 407.72224,197.21813 402.51293,199.35318 C 398.94212,200.98742 395.37997,202.50498 391.66218,203.76499 C 389.04743,205.07947 386.48119,206.38646 383.74926,207.4516 C 373.74127,213.2813 357.26555,226.89874 397.32101,195.19304 C 389.69882,201.94627 374.89358,223.3555 369.64418,211.87271 C 369.54484,211.65542 370.01962,211.56345 370.14534,211.36027 C 372.57855,207.42752 368.44868,213.1419 371.96374,208.46058 C 374.13961,205.34718 375.8562,201.95333 377.92818,198.77626 C 378.50118,197.89765 379.24724,197.13944 379.81124,196.25503 C 380.37869,195.3652 380.81263,194.39698 381.31335,193.46795 C 382.68524,191.62933 383.77483,189.14928 385.17889,187.46386 C 386.20054,186.23749 387.83304,185.38892 388.7175,183.9908 C 390.77621,180.87404 393.53099,178.2001 396.13925,175.54864 C 398.15315,172.44006 401.70591,170.48196 403.97057,167.48228 C 413.7533,159.51915 423.73312,148.7331 435.92771,143.43898 C 441.81248,140.97112 447.97485,139.2673 454.16537,137.74907 C 460.41579,135.91249 466.37976,133.41177 472.56838,131.42024 C 475.67401,130.20365 478.62684,128.63852 481.52484,126.99367 C 485.69559,124.97251 490.081,123.52604 494.30902,121.6346 C 500.22469,119.21229 506.21695,116.8511 512.57378,115.87732 C 529.07937,113.76791 545.58835,111.66206 562.15132,110.04712 C 569.3192,109.40032 576.54903,109.0681 583.70379,108.30733 C 595.71565,107.03008 605.3293,94.887895 569.00164,124.34088 C 569.37317,124.15791 569.81489,124.07603 570.11624,123.79196 C 572.53743,121.50959 568.76259,113.31611 569.10266,110.38085 C 567.71224,98.300054 567.08025,86.116282 568.74584,74.014531 C 571.40888,58.31902 575.57511,42.603152 585.5281,29.818578 C 586.86787,28.748313 606.20845,9.7099077 617.35996,6.0495358 C 625.24456,3.4614922 633.65597,5.0874711 641.51235,6.783651 C 643.96831,7.4923943 646.46025,8.0866235 648.88022,8.9098818 C 663.7693,13.975042 677.1055,22.555184 690.27677,30.952413 C 703.19742,40.797527 716.64315,50.893553 724.21764,65.670057 C 725.19609,67.995991 726.37125,70.248646 727.153,72.647858 C 730.04792,81.53249 730.08161,91.148499 730.41068,100.38002 L 705.90907,117.08622 z" />
    <path
       style="fill:#000000"
       id="path2613"
       d="M 624.86652,69.666653 C 636.39256,66.585605 647.57584,62.476866 658.16813,56.983116 C 665.19092,53.131302 672.21433,49.279659 679.15179,45.275459 C 679.82424,44.81002 680.65378,44.503929 681.26021,43.956446 L 660.86763,65.94116 C 660.16904,66.164133 659.55197,66.651314 658.87847,66.944635 C 652.09951,70.575117 645.33885,74.240412 638.52048,77.796692 C 627.44377,83.133119 615.87821,87.484905 603.94545,90.501936 L 624.86652,69.666653 z" />
    <path
       style="fill:#000000"
       id="path2615"
       d="M 642.05248,82.31559 C 642.82829,84.87307 642.37151,83.635508 643.41312,86.031842 L 619.93404,104.03129 C 618.6559,101.40214 619.20183,102.70774 618.27015,100.12552 L 642.05248,82.31559 z" />
    <path
       style="fill:#000000"
       id="path2617"
       d="M 631.1223,87.281578 C 636.34427,87.219754 641.53953,87.719237 646.65352,88.728029 C 650.05233,89.289014 651.64216,88.667861 654.05173,91.371489 L 631.017,110.21696 C 629.5692,108.89941 626.69169,109.68667 624.97932,108.86524 C 619.98835,107.9114 614.88261,107.60238 609.808,107.91441 L 631.1223,87.281578 z" />
    <path
       style="fill:#000000"
       id="path2633"
       d="M 136.27595,584.22143 C 132.51643,583.09212 129.06416,582.56178 125.15288,583.51255 C 118.7896,585.05935 110.53826,590.01056 112.56449,589.04941 C 118.20325,586.37464 123.76368,583.53779 129.36328,580.78199 C 126.9286,583.45781 124.22374,585.91072 122.05924,588.80944 C 111.02173,603.59104 105.63219,622.93554 108.4955,641.28186 C 109.32961,646.62638 111.41208,651.69975 112.87037,656.90869 C 115.52136,661.83367 117.61211,667.1042 120.82335,671.68363 C 130.33675,685.25031 144.56708,695.74249 161.07788,698.74335 C 174.76717,701.23139 179.19665,698.68049 192.30238,695.46877 C 197.08681,693.00473 202.6988,691.72433 206.65566,688.07666 C 209.2899,685.64826 196.39079,695.17962 196.50068,691.59852 C 196.66008,686.40419 203.82534,684.17359 206.9039,679.98684 C 212.33494,672.60082 216.87191,663.44337 218.47699,654.31856 C 219.20026,650.20686 218.7126,645.97223 218.83041,641.79906 C 217.70123,637.80915 217.22886,633.57161 215.44287,629.82932 C 206.70588,611.52219 185.19344,602.38833 166.32982,599.42743 C 160.85369,598.56787 155.26891,598.67669 149.73845,598.30132 L 171.4463,582.78986 C 177.05753,583.29544 182.73177,583.32745 188.28,584.3066 C 208.13679,587.8109 230.20994,597.50587 239.54472,616.67975 C 241.47933,620.6535 242.05506,625.15511 243.31023,629.3928 C 243.24134,633.82255 243.79621,638.30624 243.10356,642.68205 C 241.17156,654.88742 231.24147,674.10993 221.4043,681.66111 C 197.17826,700.25742 192.41914,701.66173 170.95037,711.70922 C 157.21183,714.47661 153.05536,716.7969 138.95123,713.70565 C 121.97768,709.98551 107.59458,698.99254 97.73425,684.93306 C 94.4129,680.19728 92.18237,674.78354 89.40643,669.70879 C 87.80376,664.33666 85.58379,659.11123 84.59844,653.59241 C 81.26962,634.94818 85.92141,615.29189 96.40719,599.66127 C 98.42018,596.66059 100.96432,594.05258 103.24288,591.24824 C 113.75492,584.605 124.11018,577.70695 134.779,571.31853 C 142.84056,566.49133 151.85339,564.83694 160.85323,567.54599 L 136.27595,584.22143 z" />
    <path
       style="fill:#000000"
       id="path2637"
       d="M 203.69069,693.27996 C 198.72795,701.84697 192.80226,709.88067 188.16503,718.63432 C 186.75211,721.30149 185.55638,724.07515 184.25206,726.79556 C 179.71714,738.47003 175.47501,751.09853 177.58728,763.80745 C 179.06086,772.67363 181.05178,774.36456 185.61746,782.09421 C 188.27916,784.65973 190.63563,787.57452 193.60256,789.79079 C 208.22404,800.71294 227.92424,804.77601 245.90106,802.69426 C 250.91391,802.11377 255.78473,800.6702 260.72656,799.65817 C 265.34289,797.85704 269.62355,794.60408 274.57552,794.2548 C 278.20654,793.99868 264.66379,802.93686 264.95994,799.35958 C 265.31947,795.01658 271.8827,793.88699 274.87169,790.67726 C 280.21816,784.93595 285.14883,776.88094 287.98063,769.60395 C 289.40366,765.94713 290.08545,762.05036 291.13785,758.27356 C 291.23927,754.46409 291.84977,750.63466 291.44207,746.84513 C 290.2113,735.40531 284.14135,725.01172 275.00029,717.91939 C 267.12155,711.80648 261.61401,710.5552 252.32638,707.05095 C 239.19309,703.34643 225.75631,701.86997 212.153,703.32867 C 208.35584,703.73584 204.63051,704.63965 200.86925,705.29514 L 221.65431,689.9099 C 225.40029,689.39651 229.12043,688.64316 232.89224,688.36975 C 246.68974,687.36953 260.33744,689.13645 273.58764,692.9779 C 283.2893,696.7553 288.91517,698.0765 297.11247,704.60875 C 306.62801,712.19149 313.03845,723.30225 314.53314,735.29026 C 315.0283,739.26161 314.48497,743.2926 314.46088,747.29377 C 313.45136,751.22974 312.82138,755.27978 311.4323,759.10166 C 308.73814,766.51427 303.75909,775.15441 298.55501,781.11984 C 283.74032,798.10189 261.73238,807.62528 240.60987,814.66027 C 235.55516,815.5694 230.56236,816.92477 225.44572,817.38766 C 206.88465,819.06682 186.44683,814.51743 171.47301,803.18878 C 168.33771,800.81674 165.8447,797.71742 163.03055,794.98174 C 158.05985,786.80104 155.98773,785.10531 154.22457,775.69899 C 151.78999,762.71082 155.82636,749.70401 160.21051,737.62536 C 161.43747,734.85768 162.54799,732.03694 163.89138,729.32233 C 168.10797,720.8018 173.66945,712.97732 178.22666,704.6389 L 203.69069,693.27996 z" />
    <path
       style="fill:#000000"
       id="path2639"
       d="M 309.6216,742.57479 C 316.09465,734.04439 323.98981,726.7291 331.67356,719.31544 C 336.71131,714.49161 342.1686,710.18478 348.03304,706.42433 C 357.20514,699.60315 353.05287,702.62212 375.80044,690.20416 C 376.19145,689.9907 376.74955,690.08342 377.1326,690.31083 C 379.49581,691.71383 380.97811,695.19386 382.21674,697.43065 C 386.02462,703.79559 389.33586,710.71397 394.34306,716.27924 C 395.28185,717.32266 396.41729,718.17074 397.45441,719.11648 C 403.94476,724.31088 411.84946,727.37479 419.60918,730.17269 C 422.54022,731.96538 421.19932,731.04469 423.66057,732.89253 L 398.65056,748.73117 C 396.56018,747.20571 397.70717,747.94372 395.17885,746.56565 C 387.32157,743.24334 379.29449,739.90179 372.67472,734.4038 C 371.54503,733.30884 370.32095,732.30354 369.28566,731.11893 C 364.29876,725.41275 360.9895,718.39528 356.82737,712.12403 C 356.28309,711.26659 354.94431,708.7958 353.82251,708.04966 C 353.76446,708.01105 352.30539,708.99567 352.61369,708.81704 C 375.82251,695.36996 384.80137,689.63627 375.6011,695.48822 C 373.71479,697.05705 371.59081,698.10941 369.54741,699.47302 C 366.38364,701.58426 365.63864,702.19338 362.57475,704.73864 C 361.14568,705.92581 359.74626,707.14824 358.33202,708.35304 C 350.76923,715.42863 343.1022,722.58067 336.77074,730.80029 L 309.6216,742.57479 z" />
    <path
       style="fill:#000000"
       id="path2641"
       d="M 303.0249,774.37398 C 310.45895,772.62853 317.73455,770.43611 325.06717,768.3023 C 330.2192,766.71547 334.29235,765.91739 339.57141,766.78505 C 343.40078,767.57789 346.55883,770.31761 350.13556,771.90675 C 354.81979,774.16655 355.9708,778.36663 356.65222,783.15156 C 357.10228,796.95773 356.69837,810.77987 356.62495,824.59097 C 356.61813,827.6992 356.61131,830.80743 356.60448,833.91566 L 331.51694,846.69435 C 331.51808,843.58962 331.51922,840.48489 331.52036,837.38016 C 331.46736,823.88255 331.49995,810.35626 330.57839,796.88521 C 330.06299,792.90936 329.46478,789.8936 325.44968,788.21647 C 322.17919,786.55878 319.10706,784.18907 315.3356,783.93535 C 310.73605,783.5516 306.31651,784.94913 301.91441,786.14932 C 294.53453,788.30781 286.94701,789.97425 279.84592,792.91498 L 303.0249,774.37398 z" />
    <path
       style="fill:#000000"
       id="path2643"
       d="M 153.8841,747.05366 C 141.55907,746.51438 129.2715,748.25115 117.00054,749.25563 C 106.19967,750.07569 95.37709,750.55411 84.55426,750.9666 C 82.63211,751.03655 81.66959,751.36354 79.93473,750.32086 C 75.72506,747.79077 74.61469,740.88818 73.26497,736.73958 C 69.55559,725.65525 64.21013,715.19488 59.36933,704.57449 L 83.85014,690.75811 C 88.67758,701.45824 94.18594,711.84207 98.55654,722.73931 C 99.35794,724.78886 101.44677,732.67325 104.28989,733.47987 C 105.1923,733.7359 107.50609,733.65244 108.26412,733.65166 C 118.8405,733.54479 129.41307,733.12004 139.9585,732.2876 C 152.56532,731.25651 165.14194,729.62068 177.80968,729.67071 L 153.8841,747.05366 z" />
    <path
       style="fill:#000000"
       id="path2645"
       d="M 243.6216,694.57479 C 249.97763,686.22852 257.52577,678.9065 265.07475,671.66072 C 269.84662,666.80451 275.38463,662.80736 280.40029,658.22693 C 282.00977,656.6154 283.84305,655.26761 285.63564,653.87494 C 286.35083,653.58458 286.15848,654.82193 286.60328,654.79687 C 286.88464,654.78102 286.44612,654.3646 286.00375,652.66184 C 285.44632,650.51616 284.98063,648.34755 284.44004,646.19756 C 282.86163,638.47575 281.47885,630.74717 279.59875,623.08558 L 304.97244,609.40496 C 306.70647,617.00093 308.21859,624.64408 310.10343,632.19888 C 310.7556,634.19582 311.27689,636.2346 311.95224,638.22383 C 312.39594,639.53074 313.27492,640.8383 313.59581,642.18614 C 313.66851,642.49153 313.56947,642.81344 313.55631,643.12708 C 311.41048,644.06801 309.5886,645.62948 307.72183,647.00783 C 302.68123,651.88399 296.88631,655.84172 291.77989,660.65624 C 289.00108,663.34697 286.02178,665.82791 283.28341,668.55979 C 278.83071,673.00193 274.68707,677.89108 270.77074,682.80029 L 243.6216,694.57479 z" />
  </g>
</svg>
