<?xml version="1.0" encoding="UTF-8" standalone="no"?>
<!-- Created with Inkscape (http://www.inkscape.org/) -->
<svg
   xmlns:dc="http://purl.org/dc/elements/1.1/"
   xmlns:cc="http://creativecommons.org/ns#"
   xmlns:rdf="http://www.w3.org/1999/02/22-rdf-syntax-ns#"
   xmlns:svg="http://www.w3.org/2000/svg"
   xmlns="http://www.w3.org/2000/svg"
   xmlns:sodipodi="http://sodipodi.sourceforge.net/DTD/sodipodi-0.dtd"
   xmlns:inkscape="http://www.inkscape.org/namespaces/inkscape"
   width="744.09448819"
   height="1052.3622047"
   id="svg2"
   sodipodi:version="0.32"
   inkscape:version="0.46"
   sodipodi:docname="menu-thingies.svg"
   inkscape:output_extension="org.inkscape.output.svg.inkscape">
  <defs
     id="defs4">
    <inkscape:perspective
       sodipodi:type="inkscape:persp3d"
       inkscape:vp_x="0 : 526.18109 : 1"
       inkscape:vp_y="0 : 1000 : 0"
       inkscape:vp_z="744.09448 : 526.18109 : 1"
       inkscape:persp3d-origin="372.04724 : 350.78739 : 1"
       id="perspective10" />
  </defs>
  <sodipodi:namedview
     id="base"
     pagecolor="#ffffff"
     bordercolor="#666666"
     borderopacity="1.0"
     gridtolerance="10000"
     guidetolerance="10"
     objecttolerance="10"
     inkscape:pageopacity="0.0"
     inkscape:pageshadow="2"
     inkscape:zoom="0.7"
     inkscape:cx="395.19851"
     inkscape:cy="488.82674"
     inkscape:document-units="px"
     inkscape:current-layer="layer1"
     showgrid="false"
     inkscape:window-width="1280"
     inkscape:window-height="1004"
     inkscape:window-x="1280"
     inkscape:window-y="0" />
  <metadata
     id="metadata7">
    <rdf:RDF>
      <cc:Work
         rdf:about="">
        <dc:format>image/svg+xml</dc:format>
        <dc:type
           rdf:resource="http://purl.org/dc/dcmitype/StillImage" />
      </cc:Work>
    </rdf:RDF>
  </metadata>
  <g
     inkscape:label="Layer 1"
     inkscape:groupmode="layer"
     id="layer1">
    <path
       style="fill:#000000;fill-opacity:1;stroke:#805c18"
       id="path2401"
       d="M 136.74796,84.816923 C 120.88769,87.411717 105.36906,91.537025 89.775072,95.35273 C 86.750505,96.168222 76.065751,98.998721 72.651526,100.09628 C 70.653953,100.73844 68.778364,101.75511 66.744868,102.27237 C 65.83727,102.50324 68.311543,100.79452 69.232198,100.96605 C 69.802624,101.07234 68.61151,102.2297 68.968962,102.68676 C 69.706886,103.63033 71.015533,103.93213 72.038818,104.55481 C 87.17922,109.89777 102.62508,114.62669 116.65505,122.628 C 119.27291,124.12097 121.73306,125.87493 124.27206,127.49839 C 127.29059,130.14033 134.82881,134.8587 131.32602,140.22365 C 130.35386,141.71263 128.77402,142.7654 127.21957,143.62901 C 116.15875,149.77407 116.79338,148.99147 106.45512,151.19664 C 98.366447,152.12947 90.172522,152.9021 82.018207,152.41839 C 79.548481,152.27188 74.588282,151.76665 72.121277,150.49456 C 71.27007,150.05565 70.730447,149.1776 70.035032,148.51912 C 70.101444,147.65384 69.884662,146.71757 70.234269,145.92328 C 71.462518,143.13275 74.445976,141.26581 76.640732,139.48141 L 82.952488,136.95114 C 80.123218,139.14341 76.646413,141.0573 75.965249,144.86639 C 76.57269,145.45249 77.03482,146.24276 77.787571,146.62467 C 80.217445,147.85748 84.994238,148.35505 87.421589,148.50384 C 95.524329,149.00053 103.66838,148.24828 111.69462,147.21309 C 114.47063,146.57907 117.19409,145.63871 120.02267,145.31102 C 120.42478,145.26444 120.53015,146.30051 120.90437,146.14614 C 131.30203,141.85716 124.10073,135.36056 118.76095,131.03947 C 116.25898,129.41686 113.83901,127.66021 111.25504,126.17166 C 97.151467,118.04699 81.5383,113.50737 66.245974,108.27119 C 65.062758,107.45111 63.531092,106.98386 62.696327,105.81096 C 62.237669,105.16652 62.196699,103.94259 62.807993,103.4406 C 71.846095,96.018559 84.159123,94.729027 94.901406,91.436763 C 110.66558,87.573745 126.35717,83.431346 142.34979,80.590968 L 136.74796,84.816923 z" />
    <path
       style="fill:#000000;fill-opacity:1;stroke:#805c18"
       id="path2403"
       d="M 147.15271,105.5378 C 149.09508,101.04688 151.28165,96.630809 153.76438,92.4086 C 156.7443,89.038945 160.75625,87.056349 165.08364,85.575303 C 167.12015,84.878313 176.60395,87.144539 178.61922,87.516094 C 190.3887,89.645371 202.28692,90.126752 214.02324,87.457423 C 222.92681,85.432378 226.0039,83.769567 234.3915,80.333465 C 247.51561,74.276473 253.4293,70.793107 262.13109,66.035969 L 256.7001,70.369802 C 257.78438,69.668408 261.08838,67.650448 259.95295,68.265619 C 249.8236,73.753684 240.09001,80.02652 229.33508,84.313887 C 220.89789,87.70913 217.81481,89.350231 208.86215,91.33267 C 196.99787,93.959846 184.97426,93.434576 173.07498,91.39633 C 172.139,91.234356 164.46003,89.860924 162.97987,89.754324 C 161.84453,89.672558 159.44452,90.984774 159.56645,89.853039 C 159.72897,88.344498 162.07231,88.136554 163.25637,87.187809 C 164.27215,86.373898 158.71635,90.056553 160.16359,89.571725 C 157.63912,93.712046 155.51253,98.090975 153.53082,102.50851 L 147.15271,105.5378 z" />
    <path
       style="fill:#000000;fill-opacity:1;stroke:#805c18"
       id="path2405"
       d="M 189.95536,101.27695 C 188.18834,108.67239 185.8451,115.90747 184.23889,123.34515 C 182.87019,129.68305 182.4732,132.68153 181.45312,139.03048 C 181.00828,144.87066 178.17075,155.20213 181.43527,160.70459 C 181.99451,161.64721 183.03356,162.2048 183.8327,162.9549 L 177.94066,166.57568 C 177.09293,165.71956 175.99665,165.05257 175.39748,164.00731 C 172.11721,158.28486 174.99526,147.98533 175.49946,141.94518 C 176.45675,136.02079 177.01845,132.12958 178.24898,126.22472 C 179.78306,118.86325 182.01862,111.68628 183.64683,104.34967 L 189.95536,101.27695 z" />
    <path
       style="fill:#000000;fill-opacity:1;stroke:#805c18"
       id="path2407"
       d="M 237.27625,100.73905 C 234.49991,112.68638 230.27694,124.23809 226.12344,135.75969 C 222.0815,146.09973 217.7005,156.45046 211.94007,165.97364 C 209.79285,169.03558 207.96819,169.86966 203.33488,170.74676 C 202.86347,170.836 202.57601,166.44519 202.56241,166.24618 L 208.8066,163.01208 C 208.88393,164.20355 208.8863,164.86315 209.10045,166.00628 C 209.16166,166.33302 209.60324,166.76158 209.34649,166.97274 C 207.59522,168.41304 205.45961,169.31136 203.56572,170.5582 C 203.30683,170.72865 204.19595,170.41591 204.42825,170.21068 C 204.88547,169.80672 205.19232,169.25929 205.57436,168.7836 C 211.58629,159.33522 216.06012,148.92321 220.16452,138.54079 C 224.26402,127.15105 228.37066,115.71097 230.95341,103.86228 L 237.27625,100.73905 z" />
    <path
       style="fill:#000000;fill-opacity:1;stroke:#805c18"
       id="path2409"
       d="M 234.57063,107.84256 C 234.63804,115.40352 236.92646,122.65044 239.36371,129.72538 C 242.0081,137.40161 242.87641,139.50573 245.76836,147.11622 C 248.5222,154.31895 251.15679,161.66325 254.94843,168.41195 C 256.36046,170.9252 257.60843,173.07092 260.11098,174.5739 C 260.794,174.98411 261.63119,175.05151 262.3913,175.29031 C 263.06396,175.25811 263.73662,175.22592 264.40928,175.19373 L 258.73932,179.30925 C 258.02779,179.27076 257.31626,179.23227 256.60473,179.19377 C 255.81573,178.86953 254.94315,178.70067 254.23773,178.22105 C 251.70115,176.49645 250.5602,174.43321 249.10678,171.73292 C 245.42584,164.89411 242.82345,157.5224 240.06292,150.28967 C 237.0345,142.34392 236.43157,140.89311 233.5872,132.91096 C 231.06486,125.83253 228.6431,118.62097 228.2865,111.04448 L 234.57063,107.84256 z" />
    <path
       style="fill:#000000;fill-opacity:1;stroke:#805c18"
       id="path2411"
       d="M 220.43326,140.29932 C 225.69251,140.61393 230.90615,139.85319 236.10512,139.20017 L 230.72382,143.21362 C 225.42248,143.87978 220.11583,144.60647 214.7547,144.42504 L 220.43326,140.29932 z" />
    <path
       style="fill:#000000;fill-opacity:1;stroke:#805c18"
       id="path2413"
       d="M 275.2942,108.51417 C 279.71193,115.62724 280.20632,124.42735 280.44323,132.57961 C 280.3309,137.34045 280.43633,142.22306 279.10081,146.85211 C 278.25436,149.78597 276.68693,152.45253 275.05567,154.99733 C 273.39913,157.2544 266.89179,165.10268 264.22,161.57012 C 263.91261,161.05366 263.83349,160.51239 263.82171,159.9268 L 270.16771,156.7045 C 270.1443,157.13273 270.1155,157.53534 270.32578,157.92965 C 272.00734,159.96038 270.75463,158.24591 264.83877,161.80971 C 264.61384,161.94521 265.25461,161.48837 265.45193,161.31511 C 266.12079,160.72778 266.78052,160.06447 267.36094,159.39576 C 267.81282,158.87515 268.23272,158.32763 268.66861,157.79356 C 270.35113,155.34302 272.00262,152.70165 272.91347,149.84176 C 274.36797,145.27491 274.29011,140.40176 274.40886,135.67499 C 274.20781,127.74491 273.73865,119.04189 269.27175,112.20473 L 275.2942,108.51417 z" />
    <path
       style="fill:#000000;fill-opacity:1;stroke:#805c18;stroke-width:1.20826805"
       id="path2415"
       d="M 268.47732,129.63355 C 267.88548,124.8294 267.52963,119.99872 267.13476,115.17541 C 267.92021,107.24279 280.19681,107.62209 286.06888,107.52103 C 295.70151,106.83753 304.24353,110.88833 311.83484,116.32825 C 312.4033,116.86984 313.13909,117.28184 313.54024,117.95301 C 315.61858,121.43041 307.49947,124.24435 302.65777,126.69308 C 299.83259,128.12194 296.77306,129.04994 293.85897,130.29387 C 296.21872,127.11328 283.88784,136.50352 285.53443,133.98448 C 286.40369,132.65466 288.20073,132.10155 289.75101,131.68643 C 290.62427,131.45261 288.2582,132.72803 287.67699,133.41078 C 286.32928,134.99393 286.85929,134.96338 287.80525,136.26436 C 295.39715,140.36749 301.10786,143.95937 306.92251,150.37381 C 309.84476,153.95905 311.35143,158.31623 313.46659,162.3425 L 306.02486,166.52 C 303.99091,162.53185 302.54573,158.22581 299.69343,154.6769 C 296.93771,151.61906 294.15249,148.88166 290.6771,146.59233 C 287.09004,144.22943 286.84007,144.49368 283.231,142.3632 C 282.26543,141.7932 281.35166,141.14218 280.412,140.53168 C 279.98536,139.87994 279.2527,139.34261 279.13209,138.57645 C 278.88519,137.00818 280.8364,135.31921 281.85039,134.68326 C 287.84451,130.9239 293.88253,127.81167 300.41576,125.18986 C 302.00222,124.51476 303.58487,123.83092 305.17512,123.16456 C 306.5455,122.59033 309.83825,120.10234 309.29749,121.46818 C 308.63757,123.13502 306.2126,123.36215 304.70263,124.35797 C 304.2338,124.66717 305.82935,123.9712 306.17171,123.52964 C 307.06992,122.37115 305.11336,121.23008 304.67244,120.79614 C 297.20971,115.33926 288.76988,111.63728 279.26744,112.41043 C 277.13469,112.47989 274.06773,112.51069 271.86572,112.80812 C 271.19396,112.89885 269.35569,113.66784 269.88071,113.24557 C 271.71344,111.77151 273.90442,110.79133 275.91042,109.55497 C 276.23306,109.35611 275.13951,109.81956 274.93091,110.13298 C 274.71489,110.45754 274.81644,110.90077 274.75921,111.28467 C 275.05955,116.08597 275.36511,120.8991 276.0887,125.65947 L 268.47732,129.63355 z" />
    <path
       d="M 318.58128,121.25208 C 320.52365,116.76116 322.71022,112.34509 325.19295,108.12288 C 328.17287,104.75323 332.18482,102.77063 336.51221,101.28959 C 338.54872,100.5926 348.03252,102.85882 350.04779,103.23038 C 361.81727,105.35966 373.71549,105.84104 385.45181,103.17171 C 394.35538,101.14666 397.43247,99.483851 405.82007,96.047751 C 418.94418,89.990758 424.85787,86.507392 433.55966,81.750254 L 428.12867,86.084087 C 429.21295,85.382693 432.51695,83.364733 431.38152,83.979904 C 421.25217,89.467969 411.51858,95.740801 400.76365,100.02817 C 392.32646,103.42341 389.24338,105.06452 380.29072,107.04695 C 368.42644,109.67413 356.40283,109.14886 344.50355,107.11061 C 343.56757,106.94864 335.8886,105.57521 334.40844,105.46861 C 333.2731,105.38684 330.87309,106.69906 330.99502,105.56732 C 331.15754,104.05878 333.50088,103.85084 334.68494,102.90209 C 335.70072,102.08818 330.14492,105.77084 331.59216,105.28601 C 329.06769,109.42633 326.9411,113.80526 324.95939,118.22279 L 318.58128,121.25208 z"
       id="path2427"
       style="fill:#000000;fill-opacity:1;stroke:#805c18" />
    <path
       d="M 364.24107,115.56266 C 362.47405,122.9581 360.13081,130.19318 358.5246,137.63086 C 357.1559,143.96876 356.75891,146.96724 355.73883,153.31619 C 355.29399,159.15637 352.45646,169.48784 355.72098,174.9903 C 356.28022,175.93292 357.31927,176.49051 358.11841,177.24061 L 352.22637,180.86139 C 351.37864,180.00527 350.28236,179.33828 349.68319,178.29302 C 346.40292,172.57057 349.28097,162.27104 349.78517,156.23089 C 350.74246,150.3065 351.30416,146.41529 352.53469,140.51043 C 354.06877,133.14896 356.30433,125.97199 357.93254,118.63538 L 364.24107,115.56266 z"
       id="path2431"
       style="fill:#000000;fill-opacity:1;stroke:#805c18" />
    <path
       style="fill:#000000;fill-opacity:1;stroke:#805c18"
       id="path2433"
       d="M 97.580251,250.48196 C 96.751341,259.43377 92.114597,268.14132 88.325548,276.14067 C 83.327416,286.69261 81.597487,289.87444 76.145672,300.55467 C 70.349458,312.64761 63.252695,324.12723 57.676186,336.32949 C 56.171577,339.6218 52.832601,347.05539 53.296507,351.37432 C 53.464858,352.94166 54.720693,354.18702 55.432786,355.59337 C 57.241008,356.36022 58.941973,357.45956 60.857451,357.89392 C 66.594139,359.19478 74.516799,358.66482 80.114381,358.34815 C 93.19617,357.60808 106.19228,355.89848 119.19704,354.36891 C 129.1388,352.93299 139.10622,351.98285 149.13386,351.53028 L 143.79389,355.44446 C 133.87435,355.83224 124.01268,356.72284 114.17526,358.10786 C 101.11833,359.63692 88.066012,361.37238 74.934258,362.13944 C 69.334425,362.46654 60.995737,363.05555 55.243177,361.62451 C 53.197489,361.11561 51.418527,359.85044 49.506202,358.96341 C 48.762928,357.41712 47.449694,356.03142 47.276381,354.32454 C 46.827307,349.90182 50.315392,342.31763 51.884274,338.9445 C 57.559431,326.7428 64.708752,315.25017 70.499343,303.10489 C 76.036566,292.15312 77.437222,289.61955 82.458394,278.82157 C 86.141333,270.90145 90.48945,262.60112 91.332941,253.77761 L 97.580251,250.48196 z" />
    <path
       style="fill:#000000;fill-opacity:1;stroke:#805c18"
       id="path2435"
       d="M 67.077133,316.00369 C 80.587952,316.04795 94.085379,314.99208 107.58585,314.43998 C 121.10377,313.98627 114.4155,313.94815 127.65083,314.52229 L 122.37831,318.31902 C 109.19331,317.77473 115.86611,317.80284 102.3598,318.27091 C 88.694712,318.87234 75.046862,319.97614 61.371261,320.14925 L 67.077133,316.00369 z" />
    <path
       style="fill:#000000;fill-opacity:1;stroke:#805c18"
       id="path2437"
       d="M 79.767945,263.14324 C 94.04892,263.52356 108.35111,263.00985 122.62966,263.38689 C 127.70784,263.52099 132.77812,263.86912 137.85236,264.11023 C 158.74658,266.30847 148.3714,264.83052 168.97901,268.53634 L 163.97154,272.04069 C 143.39468,268.37533 153.76104,269.82735 132.87094,267.69547 C 127.77576,267.4809 122.68401,267.15721 117.58541,267.05176 C 103.08161,266.75177 88.558603,267.34555 74.052971,267.29541 L 79.767945,263.14324 z" />
    <path
       style="fill:#000000;fill-opacity:1;stroke:#805c18"
       id="path2439"
       d="M 175.64285,275.1504 C 189.75331,295.29671 205.0694,314.59555 220.22445,333.96336 C 232.70443,350.0516 244.88044,366.3719 257.17967,382.59808 L 251.70869,385.84293 C 239.67185,369.44651 227.61463,353.06042 215.11687,337.01032 C 199.82944,317.67074 184.43651,298.39766 169.60664,278.70588 L 175.64285,275.1504 z" />
    <path
       style="fill:#000000;fill-opacity:1;stroke:#805c18"
       id="path2441"
       d="M 183.34953,346.70063 C 192.66024,334.19463 202.08409,321.7774 211.7977,309.5808 C 213.81715,307.15564 215.83661,304.73047 217.85606,302.3053 L 223.85624,299.75656 C 221.82842,302.18009 219.8006,304.60362 217.77277,307.02715 C 208.14048,319.07463 198.85106,331.38104 189.78786,343.86106 L 183.34953,346.70063 z" />
    <path
       style="fill:#000000;fill-opacity:1;stroke:#805c18"
       id="path2443"
       d="M 264.24874,311.10919 C 262.43883,320.31234 260.94713,329.55876 259.88294,338.87821 L 253.7618,341.90876 C 254.85158,332.61673 256.38069,323.39878 257.92488,314.17566 L 264.24874,311.10919 z" />
    <path
       style="fill:#000000;fill-opacity:1;stroke:#805c18"
       id="path2445"
       d="M 284.38632,310.29271 C 295.31433,310.39659 306.24305,310.39874 317.17145,310.3903 C 322.56035,310.38026 327.94918,310.35095 333.33792,310.31041 L 327.68987,314.41396 C 322.37443,314.37312 317.05891,314.34397 311.74332,314.33407 C 300.72537,314.32554 289.70712,314.32885 278.68955,314.43165 L 284.38632,310.29271 z" />
    <path
       style="fill:#000000;fill-opacity:1;stroke:#805c18"
       id="path2447"
       d="M 303.29561,320.30121 C 304.36763,327.92205 303.14199,335.54602 301.80986,343.04618 L 295.65673,346.04472 C 297.00109,338.65566 298.28549,331.11936 297.04616,323.61659 L 303.29561,320.30121 z" />
    <path
       style="fill:#000000;fill-opacity:1;stroke:#805c18"
       id="path2451"
       d="M 138.04594,448.96504 C 126.5218,444.65697 113.71322,443.07494 101.62627,446.05227 C 97.910118,446.96766 94.394155,448.55974 90.778097,449.81347 C 87.19538,451.87851 83.32114,453.50493 80.029948,456.00858 C 78.186233,457.41112 77.038163,459.54718 75.597699,461.36142 C 72.839593,464.8352 69.767678,468.09787 67.435623,471.87091 C 62.845266,479.29767 59.401269,488.49837 58.471321,497.21793 C 58.005943,501.58149 58.681149,505.99205 58.786063,510.3791 C 62.039027,520.37198 62.048179,524.33068 69.541918,532.10358 C 78.357248,541.2473 88.136611,543.36246 100.00455,539.21057 C 101.76473,538.59479 103.03574,537.03766 104.55134,535.9512 C 107.3757,532.71475 110.62825,529.80696 113.02443,526.24186 C 122.72131,511.81458 125.67909,492.15939 116.63207,476.62893 C 114.57724,473.10153 111.45361,470.31679 108.86437,467.16071 C 99.015344,460.20867 98.443045,458.82658 87.031026,454.66178 C 83.344971,453.31655 79.468012,452.56718 75.686505,451.51988 L 80.937962,447.92058 C 84.722111,449.005 88.602576,449.79703 92.290409,451.17385 C 103.80606,455.47313 104.33071,456.82662 114.2944,463.90741 C 116.91474,467.12257 120.07508,469.96463 122.15543,473.55289 C 131.2534,489.24541 128.42362,509.08991 118.82046,523.78958 C 116.46603,527.39352 113.25988,530.36278 110.47959,533.64938 C 100.79939,539.50006 95.24907,545.42571 83.820853,545.00341 C 71.864174,544.56159 62.148478,535.52127 57.125062,525.31297 C 55.256985,521.51676 54.512312,517.26455 53.205937,513.24034 C 53.084837,508.80197 52.394945,504.34262 52.842639,499.92522 C 54.111995,487.40047 60.598088,472.52426 69.77219,463.727 C 79.425189,454.47052 85.130315,451.92767 95.815633,445.8934 C 99.47801,444.65655 103.04324,443.08216 106.80276,442.18284 C 119.11869,439.23677 132.13978,440.89108 143.90894,445.13731 L 138.04594,448.96504 z" />
  </g>
</svg>
