<?xml version="1.0" encoding="UTF-8" standalone="no"?>
<!-- Created with Inkscape (http://www.inkscape.org/) -->
<svg
   xmlns:dc="http://purl.org/dc/elements/1.1/"
   xmlns:cc="http://creativecommons.org/ns#"
   xmlns:rdf="http://www.w3.org/1999/02/22-rdf-syntax-ns#"
   xmlns:svg="http://www.w3.org/2000/svg"
   xmlns="http://www.w3.org/2000/svg"
   xmlns:sodipodi="http://sodipodi.sourceforge.net/DTD/sodipodi-0.dtd"
   xmlns:inkscape="http://www.inkscape.org/namespaces/inkscape"
   width="744.09448819"
   height="1052.3622047"
   id="svg3023"
   sodipodi:version="0.32"
   inkscape:version="0.46"
   sodipodi:docname="stork.svg"
   inkscape:output_extension="org.inkscape.output.svg.inkscape">
  <defs
     id="defs3025">
    <inkscape:perspective
       sodipodi:type="inkscape:persp3d"
       inkscape:vp_x="0 : 526.18109 : 1"
       inkscape:vp_y="0 : 1000 : 0"
       inkscape:vp_z="744.09448 : 526.18109 : 1"
       inkscape:persp3d-origin="372.04724 : 350.78739 : 1"
       id="perspective3031" />
  </defs>
  <sodipodi:namedview
     id="base"
     pagecolor="#ffffff"
     bordercolor="#666666"
     borderopacity="1.0"
     gridtolerance="10000"
     guidetolerance="10"
     objecttolerance="10"
     inkscape:pageopacity="0.0"
     inkscape:pageshadow="2"
     inkscape:zoom="0.7"
     inkscape:cx="179.79777"
     inkscape:cy="552.97711"
     inkscape:document-units="px"
     inkscape:current-layer="layer1"
     showgrid="false"
     showguides="false"
     inkscape:window-width="1280"
     inkscape:window-height="1004"
     inkscape:window-x="1280"
     inkscape:window-y="0">
    <inkscape:grid
       type="xygrid"
       id="grid3037" />
  </sodipodi:namedview>
  <metadata
     id="metadata3028">
    <rdf:RDF>
      <cc:Work
         rdf:about="">
        <dc:format>image/svg+xml</dc:format>
        <dc:type
           rdf:resource="http://purl.org/dc/dcmitype/StillImage" />
      </cc:Work>
    </rdf:RDF>
  </metadata>
  <g
     inkscape:label="Layer 1"
     inkscape:groupmode="layer"
     id="layer1">
    <path
       style="fill:#000000;fill-opacity:1"
       id="path3045"
       d="M 154.29556,404.44003 C 155.31663,399.53346 156.18224,394.50059 155.48137,389.44857 C 154.94898,385.61091 154.15063,383.79586 152.94155,380.16918 C 149.04053,371.64654 143.1175,366.01227 135.53259,362.16469 C 131.07743,360.18307 126.52111,359.93468 122.0761,362.09026 C 120.86459,362.67777 119.54727,363.15736 118.56977,364.16438 C 117.93862,364.8146 120.17721,363.53379 120.98093,363.21851 C 113.56579,371.57777 109.10451,382.4438 105.75545,393.55146 C 104.16855,399.27488 103.48662,405.38967 100.82602,410.6468 C 97.696185,415.98744 92.115782,418.34471 87.27045,421.24421 C 82.666506,422.77689 78.412828,425.15488 74.086274,427.50866 C 60.103507,435.3094 45.055503,439.76651 30.10318,444.34903 C 18.950581,447.7231 7.9525985,451.65812 -2.62644,456.93615 C -3.3699966,457.33273 -5.5487347,458.63046 -4.8571098,458.12588 C -3.3039369,456.99276 -1.5727298,456.19803 -0.031828607,455.04324 C 0.10080829,454.94383 -0.15764892,454.58669 -0.018503338,454.49968 C 1.8240931,453.34747 4.0306975,453.22142 6.0533702,452.5744 C 8.0183123,451.94584 9.9677618,451.25567 11.924958,450.5963 C 29.1255,444.95125 46.762669,441.76426 64.525261,439.62194 C 76.652321,438.8775 88.698635,437.43298 100.72908,435.57988 C 104.31429,435.40567 107.66625,433.88022 111.14971,433.11069 C 112.55229,432.59805 113.92872,431.97887 115.23664,431.20342 C 116.31153,432.38199 115.98512,434.35474 116.56299,435.90017 C 117.45933,438.05281 118.69732,439.52642 120.66496,440.29035 C 122.7379,440.96233 124.91979,440.90352 127.05546,440.92996 C 130.90235,441.35808 134.51935,440.37882 138.22778,439.36461 C 141.08705,438.08348 144.17337,437.80081 147.12465,436.97218 C 147.97297,436.734 150.42175,435.71814 151.27128,435.37447 C 152.80097,434.50047 153.74156,433.97036 155.25831,433.07484 C 155.83267,432.73572 157.5367,431.67785 156.97561,432.04482 C 148.51782,437.57663 152.25667,435.18039 154.12633,433.38569 C 155.56627,432.19353 156.56473,430.48474 157.44589,428.75096 C 157.78527,428.03589 157.63148,428.37046 157.91033,427.74911 L 164.39299,424.39944 C 164.11157,425.05153 164.26672,424.70113 163.92424,425.44872 C 163.06379,427.2172 162.12503,429.15569 160.68364,430.34254 C 156.38122,434.76804 150.90781,437.4277 145.74642,440.29127 C 141.45486,441.95259 136.98843,442.69032 132.65855,444.21749 C 128.90734,445.21271 125.22174,446.03576 121.34555,445.66017 C 119.14635,445.63451 116.89791,445.6364 114.79533,444.8014 C 112.74078,443.82416 111.36402,442.17036 110.39698,439.86722 C 109.96053,438.76631 109.75837,437.97819 109.70274,436.78137 C 109.69224,436.55564 109.68332,435.8781 109.70083,436.10325 C 109.70547,436.16283 109.681,436.22071 109.67108,436.27945 C 108.32886,436.97622 106.949,437.59129 105.51465,437.99301 C 102.09144,438.85683 98.7283,440.09476 95.196805,440.29972 C 83.251086,442.02422 71.287091,443.30469 59.263591,444.08797 C 41.463564,446.24177 23.793479,449.48645 6.5922785,455.2984 C 4.5718606,455.98896 -1.0701413,458.00068 -3.5673761,458.59823 C -4.3641563,458.78887 -5.1923592,459.09224 -5.9929129,458.92347 C -6.3347435,458.85142 -6.8804999,458.19912 -6.6042274,457.95807 C -4.393068,456.02876 -1.826254,454.69741 0.60992837,453.16229 C 1.3133627,452.71902 2.0739933,452.40632 2.8060258,452.02834 C 13.34073,446.92175 24.268442,443.11196 35.324782,439.77034 C 50.343888,435.17256 65.426604,430.57981 79.427646,422.64388 C 83.810207,420.24012 88.189172,418.00313 92.773781,416.19386 C 94.891654,414.92392 99.738282,411.82419 90.560896,417.8621 C 89.628108,418.4758 92.008841,417.15822 93.361961,415.48585 C 93.754992,415.00009 94.051682,414.42306 94.396542,413.89167 C 97.335992,408.80377 97.895168,402.55993 99.553958,396.87185 C 102.9058,385.68048 107.38476,374.76523 114.60776,366.1135 C 124.2973,358.99202 129.79185,352.93648 141.285,357.80314 C 148.98307,361.8623 154.93297,367.66812 158.92953,376.36042 C 160.19827,380.10626 160.98662,381.86302 161.5783,385.82711 C 162.33868,390.92155 161.5567,395.98052 160.67368,400.97832 L 154.29556,404.44003 z" />
    <path
       style="fill:#000000;fill-opacity:1"
       id="path3053"
       d="M 164.02973,390.11778 C 168.07416,394.7409 171.07703,400.17331 175.15996,404.76812 C 176.13952,405.87048 177.2567,406.8424 178.30507,407.87955 C 185.03658,414.26777 193.45115,417.40214 202.31513,419.4877 C 214.35322,421.50498 226.58099,422.16821 238.76076,422.71992 C 253.0282,423.2483 267.30809,423.25102 281.5832,423.29284 C 291.11279,423.06415 300.62724,423.69584 310.06835,424.9309 L 304.57483,428.81408 C 295.1772,427.58635 285.70849,426.95579 276.22286,427.18576 C 261.9165,427.17181 247.60498,427.17677 233.30638,426.64422 C 221.07915,426.06238 208.7925,425.4403 196.71365,423.36093 C 187.73103,421.20317 179.26149,417.97559 172.46651,411.45976 C 171.4038,410.39808 170.27496,409.39871 169.27837,408.27473 C 165.21553,403.69257 162.18467,398.29677 158.02085,393.80003 L 164.02973,390.11778 z" />
    <path
       style="fill:#000000;fill-opacity:1"
       id="path3063"
       d="M 163.17128,424.42885 C 171.02154,429.21003 180.40907,433.09657 190.3264,436.4207 C 199.10494,439.02529 208.5546,440.8573 217.89329,442.73678 C 220.93224,443.68392 225.33556,443.20812 228.06768,444.51482 C 228.68559,444.81034 229.15579,445.19054 229.69983,445.52841 C 236.46489,452.45903 246.14468,458.27185 255.79305,463.96206 C 270.72463,472.21091 287.02143,479.75185 304.81137,486.01116 C 308.37232,487.26407 312.05834,488.40231 315.68181,489.59787 C 329.94603,494.2892 345.01012,498.20443 360.84365,500.93492 C 371.54466,502.7803 375.0009,502.99856 386.01642,504.22409 C 409.616,506.55421 433.48475,506.77437 457.32502,505.95228 C 462.46696,505.44397 468.08377,505.91665 473.06264,504.84474 C 473.99009,504.64507 476.53307,503.76559 475.62891,503.99623 C 469.2699,505.61832 467.57999,506.9135 470.35285,505.09462 C 471.62559,503.95859 471.81647,502.55595 472.32242,501.26019 C 473.01246,499.84148 474.7742,498.72858 476.48929,497.65329 C 480.80597,494.19246 482.66093,489.95529 484.3216,485.89904 L 492.749,483.62874 C 491.11791,487.7425 489.25423,491.94402 485.32219,495.58299 C 483.61579,496.59396 481.92884,497.64135 480.95952,498.92339 C 480.47651,500.29225 480.15102,501.722 479.14559,502.98854 C 475.87398,505.52171 478.14287,503.97851 468.23717,507.31953 C 462.82759,509.14409 455.94548,508.482 449.98636,508.96847 C 426.173,509.65878 402.335,509.36633 378.78038,507.04253 C 367.72604,505.79867 364.24339,505.57285 353.50336,503.70988 C 337.63379,500.95712 322.54896,496.99935 308.25513,492.2875 C 304.62523,491.08316 300.93295,489.93571 297.3654,488.6745 C 279.53704,482.37168 263.21352,474.79447 248.13412,466.57261 C 238.37651,460.9224 228.6297,455.13947 221.55846,448.29833 C 221.05624,448.01473 220.61674,447.69149 220.05181,447.44756 C 217.29066,446.2553 212.98739,446.69345 210.04788,445.69289 C 200.75203,443.74412 191.31588,441.89205 182.59821,439.21486 C 172.58415,435.82979 163.11705,431.90555 154.973,427.18036 L 163.17128,424.42885 z" />
    <path
       style="fill:#000000;fill-opacity:1"
       id="path3065"
       d="M 253.45145,435.82235 C 257.19993,433.60759 260.47494,430.69657 263.52536,427.61402 C 268.17888,423.3015 272.25804,418.4503 276.13219,413.44135 C 280.31233,407.49061 284.97358,402.0025 290.20767,396.96732 C 293.42798,393.10055 297.39351,390.23696 301.561,387.52127 C 306.26267,383.83585 311.40256,382.07896 316.77868,380.03114 C 318.68481,378.54642 324.31435,376.72246 314.90024,380.96072 C 314.356,381.20574 315.87109,380.26602 316.34818,379.9074 C 318.28513,378.45147 317.81864,378.79306 319.69352,377.09177 C 324.7521,372.41694 329.47054,367.46659 333.84146,362.14372 C 340.82042,353.15935 346.55537,343.38949 351.77281,333.30725 C 358.32911,319.58021 365.66817,306.23901 372.25405,292.53161 C 376.67023,282.48145 381.8378,272.78717 386.43149,262.82084 C 389.1273,256.97208 391.70684,251.07035 394.37863,245.21058 C 403.89019,225.10875 413.82009,205.22383 424.17407,185.5442 C 430.47975,173.06233 437.08967,160.69732 442.51724,147.79417 C 444.8236,142.31117 446.44807,137.59934 448.46056,132.0279 C 453.2199,119.11313 456.81881,105.9379 460.19827,92.618165 C 462.88256,82.409921 463.83928,71.88772 465.5314,61.500119 C 466.88751,54.332122 464.75716,56.390267 472.86042,53.444157 C 472.30573,55.445658 471.7081,57.429409 470.84889,59.326409 C 469.79237,61.491795 469.02041,63.839657 469.34106,66.254876 C 470.52468,70.434998 470.99945,74.739556 471.32445,79.056482 C 471.67715,85.00483 471.66859,90.966782 471.66721,96.923216 C 471.65631,102.02086 471.69779,107.11838 471.71163,112.21597 C 471.84228,113.83437 471.08754,115.99518 472.78017,116.89855 C 474.32429,118.0092 476.23222,118.63059 478.12839,118.45815 C 480.88735,116.36394 476.722,119.60067 473.82602,120.44187 C 473.22936,120.61518 474.62468,119.4891 474.99814,118.99254 C 476.6852,116.74938 477.78403,114.33086 478.9663,111.79486 C 480.2541,108.77759 481.32077,105.68157 482.22203,102.52954 C 482.32217,102.1793 483.06988,99.194961 483.25153,99.118494 C 485.38939,98.218551 487.71583,97.857031 489.94799,97.2263 C 490.93263,104.18609 489.89437,111.12483 489.03381,118.03034 C 488.08072,125.97141 487.73986,133.93935 486.6578,141.86519 C 485.78055,148.99607 484.84544,156.12164 484.04465,163.26174 C 482.5977,172.14526 477.39132,179.91888 472.49722,187.29169 C 469.56602,191.95159 466.02562,196.25493 463.16225,200.95492 C 462.39122,203.30198 469.29055,199.8244 469.6626,199.67061 C 472.83318,197.92706 471.15235,198.85708 474.28714,197.11067 C 475.06148,196.67928 477.4543,195.54581 476.61033,195.81678 C 475.42542,196.19721 474.02928,198.41394 473.25,197.44366 C 472.49008,196.4975 475.1508,195.92687 476.01222,195.07209 C 476.97223,194.11948 477.80512,193.04679 478.70156,192.03414 C 483.14605,186.48599 485.44259,179.80521 487.84965,173.22802 C 489.36268,168.90564 489.2131,167.90831 495.75081,166.79092 C 496.30452,166.69629 495.78539,167.91486 495.76195,168.47611 C 495.72578,169.34251 495.6354,170.20579 495.57212,171.07063 C 494.19304,180.39294 492.10533,189.61029 489.79883,198.7438 C 487.70281,208.24283 483.89694,217.23264 480.01525,226.1133 C 478.0107,230.16184 475.99803,234.20217 474.25253,238.37102 C 473.26003,240.74146 472.13722,242.99857 472.20369,245.59253 C 472.38488,246.5705 474.65476,244.81932 474.05539,245.0521 C 472.79273,245.54247 471.44708,247.62599 470.38184,246.78932 C 469.40979,246.02585 472.29369,245.22003 473.20228,244.38204 C 475.40479,242.35067 477.72926,239.85509 479.79334,237.70158 C 485.83674,230.38099 491.39719,222.56723 495.8072,214.14877 C 498.49671,208.87209 500.10301,203.13514 501.53404,197.41195 C 501.65848,196.87214 501.78649,196.33314 501.90736,195.79252 C 502.04563,195.17404 502.27331,193.37397 502.42399,193.31324 C 509.31071,190.53749 508.80527,188.93598 508.88351,192.59335 C 509.01461,200.5253 507.596,208.3886 506.64056,216.24192 C 504.95175,227.20756 503.41641,238.18922 500.66362,248.94829 C 498.25576,257.67162 496.60211,266.56313 494.48718,275.35517 C 492.90677,284.35586 488.93831,292.58014 484.96248,300.71629 C 479.42509,311.26117 474.60728,322.15411 469.17943,332.75185 C 463.22556,342.77433 455.28433,351.375 447.01775,359.51289 C 445.32604,361.09701 443.63433,362.68113 441.94262,364.26526 L 435.75722,366.80314 C 437.44529,365.22618 439.13336,363.64922 440.82143,362.07226 C 449.07862,354.01236 456.93689,345.43916 462.97658,335.55006 C 468.43602,324.95492 473.33948,314.09105 478.81858,303.50415 C 482.73199,295.4166 486.68013,287.25164 488.28594,278.33104 C 490.44083,269.53343 492.1141,260.63335 494.5058,251.89085 C 497.34457,241.16645 498.90969,230.19932 500.57458,219.24306 C 501.47307,211.46188 502.84705,203.66053 502.61314,195.80879 C 502.49427,191.93441 502.15881,194.30708 508.84721,190.25328 C 508.96672,190.18085 508.74658,190.51474 508.71213,190.65018 C 508.39719,191.88855 508.20876,193.16041 507.84969,194.38864 C 506.37157,200.16678 504.76673,205.97438 502.07929,211.32336 C 497.68922,219.81112 492.06029,227.63287 486.09065,235.07556 C 479.89569,241.60722 476.93295,244.87915 468.50571,249.3747 C 467.97517,249.65772 467.30715,249.759 466.7199,249.62974 C 466.35253,249.54888 466.20233,249.08375 465.94355,248.81076 C 465.81332,245.92384 466.89355,243.89292 468.01142,241.23562 C 469.7683,237.05936 471.75896,232.99707 473.81125,228.95884 C 477.68513,220.09552 481.55268,211.14233 483.68359,201.67132 C 485.97575,192.61 488.02044,183.45336 489.33866,174.19678 C 489.35285,173.9362 489.53595,170.35119 489.57501,170.32015 C 498.80625,162.98629 495.41174,166.47241 494.17764,170.2825 C 491.67901,176.90186 489.42005,183.68047 485.03404,189.35694 C 483.36423,191.33721 481.86898,193.40413 479.70005,194.89687 C 474.75609,198.29951 469.50012,201.22948 464.18018,203.99167 C 462.74722,204.58293 456.36754,207.7883 456.7057,203.82264 C 457.62278,202.21651 458.78831,200.801 459.85752,199.29147 C 464.41202,192.86133 458.64573,200.9511 463.73956,193.53831 C 464.55481,192.35192 465.41312,191.19569 466.2499,190.02438 C 471.06152,182.86805 476.3654,174.95606 477.84956,166.33398 C 478.60835,159.17573 479.63124,152.04501 480.49729,144.89902 C 480.7315,143.2009 481.42219,138.36151 481.56725,136.64159 C 482.00453,131.45718 482.00599,126.22587 482.86805,121.07622 C 483.71566,114.28123 484.77863,107.46205 483.76024,100.61496 C 485.73091,99.132634 487.58634,97.483205 489.67225,96.167981 C 490.00079,95.960826 489.28362,96.845763 489.15619,97.21266 C 488.88985,97.97948 488.71976,98.77643 488.49532,99.556541 C 487.5811,102.73412 486.52956,105.85958 485.26531,108.9181 C 482.48072,115.14918 479.81109,120.45524 472.41222,122.62935 C 470.3935,122.5423 468.45538,121.93443 466.81216,120.73007 C 464.99035,119.37933 465.40253,117.47835 465.44379,115.4084 C 465.47296,110.29385 465.53144,105.17932 465.50589,100.06459 C 465.47347,94.131486 465.48245,88.193157 465.13702,82.267824 C 464.81522,77.978452 464.36104,73.691718 463.10816,69.556598 C 462.6445,67.042731 463.32738,64.5477 464.40757,62.251183 C 465.35548,60.41287 465.97761,58.433315 466.41836,56.419495 C 482.88349,47.690979 473.48419,51.081447 472.82723,53.400368 C 472.35769,55.057776 472.15027,56.785836 471.75871,58.459633 C 469.873,68.872677 468.89382,79.449001 466.25114,89.721338 C 465.17284,93.964101 464.19567,98.232659 463.07435,102.46425 C 460.67076,111.53474 457.32606,120.31376 454.44627,129.23556 C 452.39517,134.88404 450.7891,139.5252 448.436,145.08631 C 442.96475,158.01662 436.32928,170.41532 429.99006,182.92767 C 419.63436,202.56544 409.77047,222.43899 400.28468,242.51243 C 397.62808,248.36119 395.07976,254.25883 392.41019,260.10167 C 387.85913,270.06253 382.68532,279.72993 378.31633,289.7763 C 371.76731,303.50569 364.33077,316.80349 357.84194,330.56908 C 352.70785,340.65604 347.06672,350.43144 340.17947,359.44325 C 335.84946,364.77968 331.1878,369.75354 326.16157,374.43926 C 321.81117,378.60262 316.60844,381.70473 311.22307,384.38056 C 309.85684,384.88554 308.44991,385.31518 307.09926,385.85813 C 305.05188,386.68116 299.42112,389.94416 308.08558,384.97108 C 303.95658,387.74333 299.76561,390.33195 296.62686,394.32419 C 296.49624,394.44902 292.15261,398.59905 292.09755,398.65729 C 288.54971,402.4101 285.59105,406.64522 282.45011,410.72737 C 278.6223,415.74433 274.63278,420.66154 269.96867,424.93639 C 266.96994,428.04428 263.75392,431.03609 260.0277,433.24925 L 253.45145,435.82235 z" />
    <path
       style="fill:#000000;fill-opacity:1"
       id="path3067"
       d="M 400.99808,397.44328 C 396.26662,401.48859 392.50409,406.44745 389.18996,411.67958 L 382.82152,414.48604 C 386.10592,409.23145 389.8495,404.27497 394.43596,400.07671 L 400.99808,397.44328 z" />
    <path
       style="fill:#000000;fill-opacity:1"
       id="path3069"
       d="M 387.57335,427.28109 C 396.08424,422.40372 404.42272,417.24434 411.99867,410.9736 C 414.57811,408.83855 417.02011,406.54269 419.53083,404.32724 C 429.98205,394.18586 424.74969,399.37822 435.21911,388.74129 L 441.12766,386.28757 C 430.7112,396.92151 435.9114,391.72627 425.53528,401.8815 C 423.05493,404.10056 420.6435,406.39916 418.09422,408.53867 C 410.70119,414.74336 402.5826,420.00652 394.13547,424.64765 L 387.57335,427.28109 z" />
    <path
       style="fill:#000000;fill-opacity:1"
       id="path3071"
       d="M 487.27625,325.02477 C 484.97153,334.32895 481.96436,343.47172 478.79065,352.51509 C 476.64561,359.07412 474.19455,365.57223 470.85356,371.62965 C 469.43941,374.19358 466.69007,378.4443 465.14578,380.88064 C 457.57446,392.85449 448.10687,403.36026 438.09069,413.30469 C 426.55718,424.54223 412.07279,432.09652 397.22003,437.99893 L 402.52184,433.82939 C 410.09051,430.77392 406.295,432.43595 413.89908,428.82214 C 414.05141,428.75944 414.21458,429.07948 414.35961,429.00137 C 420.84786,425.50678 426.64406,420.93661 431.94635,415.84636 C 441.94283,405.96622 451.42214,395.55108 458.94444,383.61093 C 460.22686,381.58851 463.43701,376.59395 464.6392,374.43838 C 468.00595,368.40172 470.53397,361.93385 472.67277,355.37636 C 475.81573,346.43188 478.78471,337.38068 480.95342,328.14799 L 487.27625,325.02477 z" />
    <path
       style="fill:#000000;fill-opacity:1"
       id="path3089"
       d="M 419.63518,443.35863 C 426.97282,444.23197 434.37928,444.32374 441.75927,444.47791 C 445.39372,444.53888 449.02849,444.58185 452.66342,444.59852 C 454.67762,444.60775 456.29036,444.74027 458.25569,444.23005 C 459.01398,444.03319 459.7088,443.64396 460.43536,443.35092 C 458.99641,444.1313 465.20255,440.83887 463.99793,441.44213 C 462.44787,442.21839 461.03944,443.33314 459.3797,443.83368 C 458.78557,444.01286 460.25117,442.94625 460.63286,442.45696 C 461.68173,441.11244 461.75315,440.70257 462.45823,439.14444 C 463.93208,436.08502 464.73628,432.81221 465.18496,429.46473 C 464.10501,424.64949 461.55408,420.26273 459.58527,415.74501 L 465.55091,412.38562 C 467.62117,417.00261 470.25471,421.43674 471.50595,426.34595 C 471.0798,429.74962 470.32691,433.10466 468.82957,436.21471 C 466.12031,442.98419 461.29911,444.55796 454.92968,447.65327 C 454.17697,447.90021 453.44702,448.23219 452.67157,448.39411 C 447.68058,449.43622 441.31202,448.14522 436.20174,448.49644 C 428.74515,448.31341 421.26469,448.23652 413.84397,447.42178 L 419.63518,443.35863 z" />
    <path
       style="fill:#000000;fill-opacity:1"
       id="path3091"
       d="M 467.00173,401.29596 C 467.35933,398.5828 467.18875,399.96607 467.51085,397.14584 L 473.78301,394.03729 C 473.47643,396.85269 473.62387,395.47213 473.34004,398.17891 L 467.00173,401.29596 z" />
    <path
       style="fill:#000000;fill-opacity:1"
       id="path3093"
       d="M 458.93501,419.10696 C 465.09587,406.99317 474.00106,396.45917 482.39228,385.84072 C 486.9826,379.33261 494.0377,373.39156 495.6824,365.21363 C 495.87061,364.27779 495.86517,363.31324 495.95656,362.36304 C 496.14497,358.71924 494.94676,355.29492 493.71512,351.93136 L 499.8297,348.54436 C 501.05899,352.00527 502.31457,355.5293 502.17629,359.2616 C 502.09857,360.25573 502.1237,361.26332 501.94313,362.244 C 500.40182,370.61479 493.19358,376.6674 488.4629,383.24355 C 480.14654,393.72379 471.35912,404.15734 465.28919,416.14372 L 458.93501,419.10696 z" />
    <path
       style="fill:#000000;fill-opacity:1"
       id="path3095"
       d="M 485.42936,335.45323 C 485.52531,328.57724 485.5029,321.70027 485.49512,314.8238 C 485.59509,311.50593 485.87155,308.19741 486.11765,304.88832 L 492.31907,301.78737 C 492.06469,305.08558 491.7797,308.38268 491.64774,311.68888 C 491.64,318.54301 491.61714,325.39766 491.71349,332.25131 L 485.42936,335.45323 z" />
    <path
       style="fill:#000000;fill-opacity:1"
       id="path3097"
       d="M 493.44071,289.55702 C 495.04027,300.43541 497.03198,311.2478 498.8311,322.09486 C 500.09621,329.95762 501.04858,337.88447 499.99859,345.83416 C 499.36104,350.66115 498.70291,352.3139 497.37011,356.97279 C 496.71683,358.56331 496.06355,360.15382 495.41027,361.74434 L 489.22978,364.58984 C 489.90503,363.01785 490.58029,361.44586 491.25554,359.87387 C 492.57777,355.37967 493.30714,353.51162 493.95786,348.84979 C 495.06022,340.95241 494.11441,333.06515 492.88838,325.24565 C 491.13209,314.43287 489.12767,303.6583 487.24282,292.8707 L 493.44071,289.55702 z" />
    <path
       style="fill:#000000;fill-opacity:1"
       id="path3099"
       d="M 462.59502,445.7894 C 472.57746,442.70506 482.92672,441.0517 493.24632,439.56626 L 487.87077,443.59091 C 477.4366,445.10375 467.04174,446.93331 456.94018,450.02177 L 462.59502,445.7894 z" />
    <path
       style="fill:#000000;fill-opacity:1"
       id="path3103"
       d="M 478.69451,433.35256 C 492.29908,434.34579 505.95599,434.40737 519.59029,434.56516 C 522.58325,434.70475 525.57621,434.84434 528.56917,434.98393 L 523.25133,438.81057 C 520.26332,438.67678 517.27531,438.54298 514.28729,438.40919 C 500.50764,438.26828 486.71424,438.20822 472.95279,437.42785 L 478.69451,433.35256 z" />
    <path
       style="fill:#000000;fill-opacity:1"
       id="path3105"
       d="M 518.27925,439.86658 C 518.99659,439.72172 519.72805,439.63457 520.43128,439.432 C 521.40098,439.15267 522.33446,438.76022 523.28606,438.42433 C 524.48387,438.05314 525.673,437.65263 526.8795,437.31075 C 530.83736,436.18922 534.8506,435.39965 538.89007,434.64553 C 542.29146,434.3326 545.75805,433.15706 549.20678,433.28168 C 550.26365,433.31987 551.2905,433.71721 552.28025,434.03436 C 554.30033,434.954 556.48853,435.46136 558.29671,436.78343 C 559.13618,437.59767 560.12007,438.24849 561.14532,438.80442 C 561.54869,438.92321 561.74188,439.2071 562.03533,439.49804 C 563.68282,443.524 550.00075,445.53293 547.35717,446.02515 C 541.50922,447.25511 535.61493,448.22514 529.74649,449.35375 L 535.08793,445.31513 C 541.00888,444.16775 546.95461,443.15386 552.84816,441.87131 C 556.69875,441.08208 556.07375,441.27742 559.37964,440.39136 C 559.92086,440.2463 561.44719,439.59816 560.9963,439.93083 C 555.33188,444.11012 553.93424,443.01299 555.97067,443.22906 C 555.72782,443.00094 555.46498,442.84279 555.1713,442.68473 C 554.16393,442.07056 553.19455,441.38917 552.32635,440.58714 C 550.53371,439.39402 548.41504,438.87821 546.45992,438.00873 C 542.15994,436.8057 537.71068,438.23806 533.39527,438.79593 C 529.36335,439.55953 525.37073,440.37495 521.42832,441.53098 C 519.21925,442.17875 517.07097,443.02359 514.86014,443.66531 C 514.14488,443.87292 513.40973,444.00461 512.68452,444.17425 L 518.27925,439.86658 z" />
    <path
       style="fill:#000000;fill-opacity:1"
       id="path3107"
       d="M 471.31012,471.30779 C 484.05577,467.81336 496.95939,464.91707 509.83805,461.93788 C 512.89291,461.29705 515.94778,460.65622 519.00264,460.01539 L 513.80331,463.96025 C 510.75115,464.60469 507.699,465.24913 504.64684,465.89357 C 491.62021,468.92988 478.56931,471.91058 465.70971,475.59019 L 471.31012,471.30779 z" />
    <path
       style="fill:#000000;fill-opacity:1"
       id="path3109"
       d="M 491.36285,480.2894 C 506.75124,480.00679 522.1198,478.39182 537.41716,476.73936 C 547.05668,475.6003 556.71235,474.61489 566.37278,473.67421 L 561.0969,477.58478 C 551.47475,478.48865 541.85767,479.44169 532.25895,480.57274 C 516.77011,482.25569 501.23123,483.90021 485.65698,484.43496 L 491.36285,480.2894 z" />
    <path
       style="fill:#000000;fill-opacity:1"
       id="path3111"
       d="M 533.0013,454.98367 C 543.3594,456.67527 553.9004,456.90277 564.37177,457.21833 C 573.59482,457.6593 582.85567,457.04816 592.05538,457.90793 C 594.64922,458.10088 597.21017,458.76296 599.53871,459.92806 C 602.36489,463.25444 596.96651,463.99635 593.71959,465.93934 C 589.82532,467.09304 585.84744,467.94442 581.88311,468.84056 C 573.22886,471.0394 564.5483,473.04749 555.75727,474.63227 C 554.79801,474.73197 553.83874,474.83168 552.87948,474.93138 L 558.46238,470.78412 C 559.39701,470.68248 560.33163,470.58085 561.26626,470.47921 C 570.06366,468.92648 578.72775,466.85575 587.38111,464.65257 C 591.35385,463.71994 595.43534,462.95831 599.24449,461.48146 C 597.4265,462.58654 595.57219,463.63396 593.79052,464.79669 C 593.7096,464.8495 593.99328,464.90805 594.07438,464.85552 C 594.13831,464.81412 594.06469,464.70312 594.05056,464.62828 C 593.98981,464.3067 593.86818,464.04193 593.6033,463.8373 C 591.34325,462.73531 588.87707,462.14978 586.37384,461.95363 C 577.25576,461.06169 568.07104,461.57787 558.92734,461.14885 C 548.34392,460.82794 537.70185,460.58568 527.21743,458.99565 L 533.0013,454.98367 z" />
    <path
       style="fill:#000000;fill-opacity:1"
       id="path3113"
       d="M 545.64856,440.2894 C 556.06569,440.29525 566.45493,440.26969 576.83869,441.16832 C 586.39398,442.03006 595.85049,443.18767 605.1505,445.55805 C 606.79862,446.1903 612.34435,446.45766 610.21574,449.37393 C 607.6981,450.69409 605.27577,452.21465 602.66283,453.33439 C 602.12473,453.56499 597.06106,453.89517 596.96124,453.90109 C 592.62431,454.1582 588.27662,454.2085 583.93411,454.29584 C 580.42995,454.35984 576.92534,454.39168 573.4208,454.42535 L 579.04498,450.33453 C 582.51883,450.33076 585.99272,450.3196 589.46616,450.25933 C 593.82131,450.16955 598.18312,450.1086 602.52901,449.78165 C 603.62739,449.69902 604.726,449.60625 605.81786,449.46095 C 606.62744,449.35322 608.75432,448.39819 608.2286,449.02321 C 607.05181,450.42225 605.17517,451.03446 603.64845,452.04009 C 604.00491,451.86861 604.7798,451.85043 604.68698,451.46592 C 604.48041,450.61017 600.03082,449.77715 599.42823,449.49776 C 590.23501,447.07474 580.85584,445.94317 571.39692,445.0531 C 560.92415,444.20911 550.44403,444.26492 539.94269,444.43496 L 545.64856,440.2894 z" />
    <path
       style="fill:#000000;fill-opacity:1"
       id="path3115"
       d="M 498.33937,438.85752 C 500.71356,438.84 503.09122,438.91642 505.46488,438.83981 C 503.09226,440.0906 500.85295,441.63606 498.34703,442.59218 C 497.80833,442.79772 494.36994,441.76487 494.07974,441.68667 C 491.34962,440.95098 488.64221,440.38275 485.85597,439.90028 C 478.44562,438.87288 470.9436,438.79963 463.4752,438.69924 C 461.32899,438.67538 459.18273,438.67517 457.0365,438.69164 L 462.74158,434.54954 C 464.8534,434.58037 466.96531,434.60437 469.07701,434.64345 C 476.57391,434.79128 484.10828,434.86064 491.54425,435.91672 C 495.11183,436.55195 498.56139,437.561 502.10447,438.27341 C 502.78251,438.40974 504.46679,437.9743 504.15476,438.59152 C 503.20944,440.46144 501.18567,441.54878 499.70113,443.02742 C 497.34408,442.94392 494.98206,443.03281 492.6244,443.0097 L 498.33937,438.85752 z" />
  </g>
</svg>
